<svg xmlns="http://www.w3.org/2000/svg" xmlns:xlink="http://www.w3.org/1999/xlink" width="427" zoomAndPan="magnify" viewBox="0 0 320.25 320.249992" height="427" preserveAspectRatio="xMidYMid meet" version="1.0"><defs><clipPath id="1205e062e6"><path d="M 0 0 L 319.5 0 L 319.5 319.5 L 0 319.5 Z M 0 0 " clip-rule="nonzero"/></clipPath><clipPath id="4d0b3acdf0"><path d="M 27 28.15625 L 292.457031 28.15625 L 292.457031 291 L 27 291 Z M 27 28.15625 " clip-rule="nonzero"/></clipPath><clipPath id="0000b22775"><path d="M 44 33 L 271.972656 33 L 271.972656 287 L 44 287 Z M 44 33 " clip-rule="nonzero"/></clipPath><clipPath id="4ae67afab7"><path d="M 89.507812 89.507812 L 230 89.507812 L 230 230 L 89.507812 230 Z M 89.507812 89.507812 " clip-rule="nonzero"/></clipPath><clipPath id="b256b89934"><path d="M 97.128906 94.058594 L 222.835938 94.058594 L 222.835938 230 L 97.128906 230 Z M 97.128906 94.058594 " clip-rule="nonzero"/></clipPath><clipPath id="7e6e06fa2c"><path d="M 100.835938 97 L 218.308594 97 L 218.308594 224.875 L 100.835938 224.875 Z M 100.835938 97 " clip-rule="nonzero"/></clipPath></defs><g clip-path="url(#1205e062e6)"><path fill="#ffffff" d="M 0 0 L 319.5 0 L 319.5 319.5 L 0 319.5 Z M 0 0 " fill-opacity="1" fill-rule="nonzero"/><path fill="#282f37" d="M 0 0 L 319.5 0 L 319.5 319.5 L 0 319.5 Z M 0 0 " fill-opacity="1" fill-rule="nonzero"/></g><g clip-path="url(#4d0b3acdf0)"><path fill="#027c7d" d="M 292.558594 154.746094 L 258.894531 91.589844 L 256.59375 76.765625 C 256.539062 76.390625 256.273438 76.015625 255.898438 75.855469 L 249.152344 73.234375 L 236.039062 48.667969 L 248.777344 73.125 L 172.242188 43.367188 L 212.332031 38.335938 C 213.617188 38.175781 214.527344 36.945312 214.363281 35.660156 C 214.203125 34.375 212.972656 33.464844 211.6875 33.628906 L 163.789062 40.050781 L 133.496094 28.273438 C 133.335938 28.222656 133.121094 28.222656 132.960938 28.328125 L 109.304688 47.328125 L 81.527344 51.074219 C 80.9375 51.183594 80.402344 51.554688 80.132812 52.144531 L 68.679688 79.976562 L 46.09375 98.121094 L 68.46875 80.511719 L 37.691406 155.332031 L 31.644531 143.71875 C 31.003906 142.542969 29.609375 142.113281 28.433594 142.757812 C 27.253906 143.398438 26.828125 144.789062 27.46875 145.96875 L 35.445312 160.898438 L 30.144531 173.746094 C 29.984375 174.121094 30.039062 174.601562 30.304688 174.921875 L 70.980469 227.695312 L 89.179688 261.894531 C 89.445312 262.429688 90.035156 262.804688 90.679688 262.804688 L 98.277344 263.070312 L 110.480469 278.914062 C 110.585938 279.074219 110.800781 279.179688 111.015625 279.128906 L 194.5625 267.886719 L 170.585938 286.78125 C 169.566406 287.582031 169.40625 289.082031 170.210938 290.097656 C 171.011719 291.117188 172.511719 291.277344 173.527344 290.472656 L 203.070312 266.710938 L 203.714844 266.605469 L 221.910156 267.246094 C 222.285156 267.246094 222.714844 267.085938 222.929688 266.710938 L 224.746094 263.820312 L 241.179688 261.625 L 224.855469 263.660156 L 242.890625 234.757812 L 275.96875 208.160156 C 276.449219 207.785156 276.714844 207.195312 276.609375 206.554688 L 273.398438 185.839844 L 292.453125 155.28125 C 292.613281 155.171875 292.664062 154.957031 292.558594 154.746094 Z M 254.453125 77.78125 L 255.523438 85.273438 L 250.707031 76.28125 Z M 133.335938 29.398438 L 161.003906 40.425781 L 110.75 47.167969 Z M 82.972656 54.554688 L 103.628906 51.984375 L 74.03125 75.746094 Z M 73.765625 76.390625 L 104.96875 51.824219 L 169.300781 43.796875 L 250.332031 76.121094 L 255.683594 86.453125 L 270.402344 187.980469 L 244.605469 228.550781 L 199.539062 264.035156 L 97.316406 259.59375 L 80.132812 236.847656 L 39.191406 158.277344 Z M 32.554688 174.011719 L 36.890625 163.734375 L 65.683594 217.792969 Z M 91.855469 259.324219 L 84.46875 245.195312 L 95.496094 259.484375 Z M 111.230469 277.949219 L 100.042969 263.179688 L 196.488281 266.496094 L 195.257812 267.460938 Z M 221.375 264.945312 L 217.789062 264.785156 L 221.804688 264.25 Z M 221.964844 264.089844 L 216.558594 264.785156 L 206.230469 264.355469 L 238.128906 238.71875 Z M 273.023438 206.125 L 249.046875 225.019531 L 270.722656 190.230469 Z M 259.109375 92.980469 L 291.433594 155.011719 L 273.128906 183.753906 Z M 259.109375 92.980469 " fill-opacity="1" fill-rule="nonzero"/></g><g clip-path="url(#0000b22775)"><path fill="#03989e" d="M 44.703125 109.257812 C 44.703125 108.140625 44.777344 107.023438 44.925781 105.914062 C 45.074219 104.804688 45.292969 103.707031 45.582031 102.625 C 45.871094 101.542969 46.230469 100.484375 46.660156 99.453125 C 47.089844 98.417969 47.582031 97.414062 48.140625 96.445312 C 48.703125 95.476562 49.324219 94.546875 50.003906 93.65625 C 50.683594 92.769531 51.421875 91.925781 52.210938 91.132812 C 53.003906 90.339844 53.84375 89.605469 54.730469 88.921875 C 55.617188 88.238281 56.546875 87.617188 57.515625 87.054688 L 145.042969 36.527344 C 146.011719 35.964844 147.015625 35.472656 148.050781 35.046875 C 149.085938 34.617188 150.144531 34.257812 151.226562 33.96875 C 152.3125 33.679688 153.40625 33.460938 154.519531 33.316406 C 155.628906 33.171875 156.746094 33.097656 157.863281 33.097656 C 158.984375 33.097656 160.101562 33.171875 161.210938 33.316406 C 162.320312 33.460938 163.417969 33.679688 164.5 33.96875 C 165.582031 34.257812 166.640625 34.617188 167.675781 35.046875 C 168.710938 35.472656 169.714844 35.964844 170.6875 36.527344 L 258.203125 87.054688 C 259.171875 87.613281 260.101562 88.238281 260.992188 88.917969 C 261.878906 89.601562 262.71875 90.339844 263.511719 91.132812 C 264.304688 91.925781 265.039062 92.765625 265.722656 93.652344 C 266.40625 94.542969 267.027344 95.472656 267.585938 96.441406 C 268.148438 97.410156 268.640625 98.414062 269.070312 99.449219 C 269.5 100.484375 269.859375 101.542969 270.152344 102.625 C 270.441406 103.707031 270.660156 104.800781 270.808594 105.914062 C 270.957031 107.023438 271.03125 108.136719 271.035156 109.257812 L 271.035156 210.320312 C 271.03125 211.441406 270.957031 212.554688 270.808594 213.667969 C 270.660156 214.777344 270.441406 215.875 270.152344 216.957031 C 269.859375 218.035156 269.5 219.09375 269.070312 220.128906 C 268.640625 221.164062 268.144531 222.167969 267.585938 223.136719 C 267.023438 224.109375 266.402344 225.039062 265.722656 225.925781 C 265.039062 226.816406 264.300781 227.65625 263.511719 228.449219 C 262.71875 229.242188 261.878906 229.976562 260.992188 230.660156 C 260.101562 231.34375 259.171875 231.964844 258.203125 232.527344 L 170.6875 283.058594 C 169.714844 283.617188 168.710938 284.113281 167.675781 284.539062 C 166.640625 284.964844 165.582031 285.324219 164.5 285.613281 C 163.417969 285.902344 162.320312 286.121094 161.210938 286.265625 C 160.101562 286.410156 158.984375 286.484375 157.863281 286.484375 C 156.746094 286.484375 155.628906 286.410156 154.519531 286.265625 C 153.40625 286.121094 152.3125 285.902344 151.230469 285.613281 C 150.148438 285.324219 149.085938 284.964844 148.050781 284.539062 C 147.015625 284.113281 146.011719 283.617188 145.042969 283.058594 L 57.515625 232.527344 C 56.546875 231.964844 55.617188 231.34375 54.730469 230.660156 C 53.84375 229.976562 53.003906 229.238281 52.210938 228.445312 C 51.421875 227.652344 50.6875 226.8125 50.003906 225.921875 C 49.324219 225.035156 48.703125 224.105469 48.144531 223.132812 C 47.582031 222.164062 47.089844 221.160156 46.660156 220.128906 C 46.230469 219.09375 45.871094 218.035156 45.582031 216.953125 C 45.292969 215.871094 45.074219 214.777344 44.925781 213.664062 C 44.777344 212.554688 44.703125 211.441406 44.703125 210.320312 Z M 44.703125 109.257812 " fill-opacity="1" fill-rule="nonzero"/></g><g clip-path="url(#4ae67afab7)"><path fill="#282f37" d="M 159.75 229.992188 C 120.945312 229.992188 89.507812 198.339844 89.507812 159.75 C 89.507812 121.160156 120.945312 89.507812 159.75 89.507812 C 198.554688 89.507812 229.992188 120.945312 229.992188 159.75 C 229.992188 198.554688 198.339844 229.992188 159.75 229.992188 Z M 159.75 93.84375 C 123.328125 93.84375 93.84375 123.328125 93.84375 159.75 C 93.84375 196.171875 123.328125 225.65625 159.75 225.65625 C 196.171875 225.65625 225.65625 196.171875 225.65625 159.75 C 225.65625 123.328125 195.953125 93.84375 159.75 93.84375 Z M 159.75 93.84375 " fill-opacity="1" fill-rule="nonzero"/></g><g clip-path="url(#b256b89934)"><path fill="#03989e" d="M 220.804688 179.511719 C 220.484375 177.980469 220.472656 176.523438 219.917969 175.171875 C 220.027344 180.820312 219.386719 186.308594 216.832031 191.433594 C 217.25 187.859375 218.039062 184.300781 216.71875 180.757812 C 216.558594 180.328125 216.324219 179.898438 215.84375 179.605469 C 215.519531 180.113281 215.597656 180.691406 215.511719 181.210938 C 215.199219 183.09375 214.644531 184.898438 213.921875 186.660156 C 213.429688 187.851562 213.019531 189.078125 212.546875 190.28125 C 212.460938 190.5 212.402344 190.878906 212.078125 190.820312 C 211.800781 190.765625 211.914062 190.417969 211.898438 190.199219 C 211.863281 189.753906 211.808594 189.324219 211.460938 188.886719 C 210.546875 193.179688 207.980469 196.449219 205.359375 199.683594 C 203.914062 201.46875 202.546875 203.304688 201.394531 205.296875 C 201.296875 205.464844 201.234375 205.765625 200.976562 205.6875 C 200.726562 205.609375 200.832031 205.324219 200.832031 205.128906 C 200.824219 202.902344 200.828125 200.675781 200.777344 198.429688 C 200.003906 200.160156 198.605469 201.34375 197.265625 202.554688 C 195.144531 204.46875 193.113281 206.449219 191.492188 208.820312 C 191.421875 208.921875 191.3125 208.996094 191.074219 209.222656 C 191.113281 207.332031 191.574219 205.601562 191.058594 203.722656 C 187.914062 206.585938 185.523438 209.898438 183.550781 213.601562 C 183.148438 212.085938 183.269531 210.515625 182.890625 208.808594 C 182.0625 211.359375 180.863281 213.472656 179.164062 215.289062 C 177.828125 216.714844 176.609375 218.230469 175.59375 219.90625 C 175.304688 220.390625 175.167969 220.972656 174.617188 221.492188 C 174.4375 219.746094 174.699219 218.148438 174.871094 216.347656 C 174.226562 217.261719 173.902344 218.109375 173.5625 218.949219 C 173.496094 219.117188 173.449219 219.359375 173.242188 219.34375 C 173.039062 219.332031 173.011719 219.09375 172.949219 218.917969 C 172.554688 217.757812 172.554688 217.757812 171.640625 218.609375 C 170.070312 220.078125 168.785156 221.773438 167.6875 223.621094 C 167.53125 223.878906 167.464844 224.214844 167.0625 224.410156 C 166.722656 222.480469 166.839844 220.582031 167.015625 218.488281 C 165.34375 220.898438 163.4375 222.882812 162.117188 225.308594 C 161.386719 226.652344 160.667969 228 160.097656 229.421875 C 160.023438 229.609375 160 229.882812 159.753906 229.90625 C 159.476562 229.929688 159.46875 229.628906 159.394531 229.453125 C 157.984375 226.066406 156.070312 222.996094 153.730469 220.175781 C 153.300781 219.65625 152.96875 219.050781 152.527344 218.382812 C 152.683594 220.433594 152.722656 222.382812 152.488281 224.359375 C 152.046875 224.3125 152.011719 223.976562 151.875 223.757812 C 150.628906 221.726562 149.242188 219.8125 147.414062 218.25 C 146.96875 217.875 146.742188 217.808594 146.625 218.484375 C 146.566406 218.800781 146.539062 219.171875 146.113281 219.449219 C 145.628906 218.488281 145.273438 217.476562 144.652344 216.585938 C 144.824219 218.214844 144.953125 219.835938 144.988281 221.429688 C 144.777344 221.523438 144.703125 221.4375 144.660156 221.34375 C 143.5625 219.09375 142.050781 217.144531 140.355469 215.320312 C 138.667969 213.503906 137.402344 211.421875 136.507812 208.882812 C 136.144531 210.566406 136.296875 212.109375 135.921875 213.617188 C 133.933594 209.941406 131.558594 206.609375 128.40625 203.742188 C 127.859375 205.582031 128.382812 207.292969 128.3125 209.082031 C 125.75 204.972656 121.34375 202.605469 118.628906 198.570312 C 118.628906 200.945312 118.628906 203.3125 118.628906 205.660156 C 118.28125 205.734375 118.222656 205.519531 118.140625 205.371094 C 116.652344 202.679688 114.65625 200.359375 112.789062 197.9375 C 110.933594 195.535156 109.1875 193.054688 108.378906 190.058594 C 108.277344 189.683594 108.207031 189.292969 108.105469 188.816406 C 107.671875 189.375 107.730469 189.953125 107.667969 190.507812 C 107.652344 190.65625 107.652344 190.863281 107.449219 190.859375 C 107.355469 190.855469 107.253906 190.707031 107.171875 190.613281 C 107.109375 190.53125 107.0625 190.429688 107.023438 190.332031 C 105.78125 186.953125 104.144531 183.699219 103.851562 180.027344 C 103.839844 179.878906 103.890625 179.664062 103.699219 179.617188 C 103.488281 179.5625 103.378906 179.761719 103.269531 179.90625 C 102.597656 180.828125 102.320312 181.890625 102.191406 183.003906 C 101.894531 185.570312 102.175781 188.101562 102.65625 190.621094 C 102.707031 190.871094 102.742188 191.125 102.789062 191.421875 C 101.117188 190.296875 99.523438 181.628906 99.710938 174.675781 C 99.046875 176.316406 99.039062 177.898438 98.660156 179.40625 C 98.363281 178.890625 98.332031 178.355469 98.300781 177.8125 C 98.113281 173.980469 98.949219 170.328125 100.226562 166.75 C 100.84375 165.015625 101.652344 163.347656 101.988281 161.515625 C 102.132812 160.726562 102.121094 159.941406 102.085938 159.15625 C 102.074219 158.902344 102.089844 158.570312 101.816406 158.464844 C 101.570312 158.367188 101.402344 158.644531 101.230469 158.792969 C 99.773438 160.039062 98.585938 161.503906 97.675781 163.199219 C 97.5625 163.410156 97.550781 163.71875 97.128906 163.835938 C 97.492188 160.5 98.371094 157.359375 99.507812 154.277344 C 100.640625 151.203125 102.019531 148.214844 102.9375 144.816406 C 100.9375 146.53125 99.496094 148.398438 98.367188 150.601562 C 98.101562 150.199219 98.28125 149.953125 98.34375 149.71875 C 99.28125 146.21875 100.863281 143.023438 102.933594 140.058594 C 103.941406 138.609375 104.992188 137.179688 105.546875 135.472656 C 105.679688 135.066406 105.984375 134.523438 105.601562 134.214844 C 105.257812 133.941406 104.828125 134.375 104.476562 134.566406 C 103.050781 135.355469 101.835938 136.398438 100.785156 137.632812 C 100.632812 137.8125 100.472656 137.984375 100.304688 138.15625 C 100.273438 138.1875 100.207031 138.175781 100.085938 138.203125 C 100.167969 137.644531 100.511719 137.246094 100.785156 136.832031 C 103.253906 133.074219 106.421875 129.949219 109.699219 126.921875 C 110.085938 126.5625 110.460938 126.183594 110.890625 125.886719 C 111.445312 125.503906 111.359375 125.277344 110.839844 124.933594 C 108.363281 123.300781 106.488281 121.125 105.238281 118.429688 C 103.640625 115 103.171875 111.386719 103.472656 107.636719 C 103.632812 105.660156 103.941406 103.710938 104.628906 101.84375 C 106.441406 96.925781 110.980469 94.101562 116.648438 94.847656 C 121.753906 95.523438 126.242188 97.585938 130 101.164062 C 130.746094 101.875 131.597656 102.441406 132.570312 102.832031 C 133.25 103.109375 133.652344 102.886719 133.992188 102.292969 C 134.421875 101.539062 134.433594 100.734375 134.425781 99.914062 C 134.421875 99.746094 134.320312 99.503906 134.546875 99.425781 C 134.769531 99.351562 134.839844 99.597656 134.949219 99.730469 C 135.667969 100.617188 136.359375 101.535156 137.648438 101.59375 C 138.585938 101.636719 138.632812 101.574219 138.242188 100.730469 C 138.167969 100.566406 138.046875 100.414062 138.117188 100.0625 C 139.128906 100.632812 140.15625 101.09375 141.402344 101.261719 C 141.089844 100.679688 140.488281 100.441406 140.375 99.671875 C 141.695312 100.472656 142.976562 101.003906 144.539062 101.082031 C 143.917969 100.480469 143.25 100.121094 142.730469 99.289062 C 146.472656 99.707031 149.679688 101.128906 152.882812 102.675781 C 151.730469 101.644531 150.578125 100.613281 149.402344 99.5625 C 149.695312 99.378906 149.859375 99.574219 150.03125 99.648438 C 153.289062 101.078125 156.273438 102.953125 158.957031 105.28125 C 159.558594 105.804688 159.941406 105.785156 160.539062 105.265625 C 163.164062 102.992188 166.097656 101.179688 169.261719 99.75 C 169.445312 99.664062 169.648438 99.621094 169.957031 99.695312 C 169.460938 100.152344 168.964844 100.613281 168.464844 101.070312 C 167.9375 101.542969 167.40625 102.011719 166.910156 102.558594 C 170.042969 101.011719 173.238281 99.695312 176.910156 99.257812 C 176.429688 100.097656 175.734375 100.464844 174.980469 101.078125 C 176.578125 101.003906 177.828125 100.46875 179.203125 99.730469 C 179.019531 100.449219 178.527344 100.730469 178.042969 101.269531 C 179.363281 101.117188 180.421875 100.742188 181.382812 100.050781 C 181.550781 100.445312 181.339844 100.625 181.25 100.828125 C 180.9375 101.539062 180.996094 101.625 181.792969 101.59375 C 182.992188 101.550781 183.765625 100.835938 184.433594 99.9375 C 184.5625 99.761719 184.636719 99.429688 184.925781 99.542969 C 185.140625 99.628906 185.058594 99.921875 185.058594 100.121094 C 185.042969 100.953125 185.171875 101.738281 185.660156 102.449219 C 185.953125 102.878906 186.253906 103.019531 186.785156 102.863281 C 187.996094 102.511719 188.945312 101.765625 189.828125 100.9375 C 193.59375 97.390625 198.101562 95.460938 203.179688 94.804688 C 208.574219 94.109375 213.222656 97.035156 214.957031 102.386719 C 216.671875 107.675781 216.582031 112.972656 214.335938 118.136719 C 213.160156 120.832031 211.324219 123.007812 208.945312 124.730469 C 208.0625 125.371094 208.058594 125.359375 208.910156 126.101562 C 212.085938 128.890625 215.046875 131.886719 217.574219 135.289062 C 218.230469 136.171875 218.863281 137.070312 219.410156 138.164062 C 218.917969 138.121094 218.792969 137.804688 218.601562 137.589844 C 217.433594 136.238281 216.074219 135.128906 214.488281 134.308594 C 214.285156 134.203125 214.058594 134.007812 213.832031 134.191406 C 213.617188 134.359375 213.6875 134.640625 213.734375 134.863281 C 213.992188 136.125 214.585938 137.242188 215.285156 138.300781 C 216.417969 140.015625 217.636719 141.671875 218.625 143.480469 C 219.65625 145.359375 220.480469 147.324219 221.082031 149.378906 C 221.183594 149.714844 221.382812 150.058594 221.167969 150.566406 C 219.984375 148.378906 218.625 146.441406 216.539062 144.871094 C 216.886719 146.257812 217.359375 147.421875 217.8125 148.585938 C 219.222656 152.191406 220.828125 155.726562 221.695312 159.523438 C 222.015625 160.921875 222.375 162.320312 222.457031 163.882812 C 222.046875 163.65625 221.980469 163.335938 221.839844 163.078125 C 220.9375 161.410156 219.75 159.980469 218.304688 158.753906 C 218.148438 158.621094 217.996094 158.398438 217.773438 158.472656 C 217.503906 158.558594 217.539062 158.851562 217.515625 159.082031 C 217.359375 160.6875 217.613281 162.238281 218.183594 163.734375 C 219.203125 166.421875 220.234375 169.101562 220.746094 171.949219 C 221.136719 174.128906 221.441406 176.316406 221.144531 178.542969 C 221.109375 178.824219 221.097656 179.117188 220.804688 179.511719 Z M 182.144531 167.046875 C 182.195312 167.183594 182.246094 167.324219 182.300781 167.460938 C 183.453125 170.367188 184.320312 173.335938 184.296875 176.503906 C 184.296875 176.71875 184.316406 176.925781 184.460938 177.097656 C 185.082031 177.847656 185.589844 178.671875 185.988281 179.558594 C 186.082031 179.511719 186.148438 179.5 186.167969 179.460938 C 187.636719 176.605469 189.375 173.886719 190.597656 170.902344 C 191.265625 169.277344 191.382812 167.578125 191.035156 165.859375 C 190.898438 165.203125 190.675781 164.566406 190.488281 163.917969 C 192.984375 166.273438 193.898438 169.285156 194.195312 172.640625 C 194.367188 172.554688 194.417969 172.4375 194.488281 172.328125 C 194.78125 171.855469 195.109375 171.40625 195.367188 170.921875 C 197.734375 166.449219 197.984375 161.777344 196.65625 156.964844 C 196.589844 156.71875 196.335938 156.410156 196.546875 156.238281 C 196.804688 156.023438 197.074219 156.347656 197.308594 156.480469 C 198.820312 157.328125 199.871094 158.5625 200.425781 160.214844 C 200.484375 160.390625 200.460938 160.636719 200.769531 160.714844 C 200.945312 158.816406 200.777344 156.960938 200.46875 155.121094 C 199.4375 148.898438 196.789062 143.417969 192.757812 138.554688 C 196.160156 140.292969 199.34375 142.273438 201.691406 145.367188 C 198.207031 136.941406 192.1875 130.792969 184.285156 126.261719 C 184.671875 126.050781 184.84375 126.152344 185.019531 126.191406 C 188.597656 126.96875 191.988281 128.261719 195.171875 130.066406 C 200.75 133.226562 205.222656 137.480469 207.796875 143.457031 C 209.394531 147.167969 210.046875 151.023438 208.886719 155.019531 C 208.851562 155.148438 208.808594 155.273438 208.972656 155.441406 C 209.65625 155.085938 209.871094 154.289062 210.394531 153.765625 C 210.65625 154.058594 210.546875 154.359375 210.550781 154.632812 C 210.570312 156.476562 210.484375 158.328125 210.601562 160.164062 C 210.898438 164.8125 212.09375 169.359375 212.160156 174.042969 C 212.792969 171.984375 212.996094 169.867188 213.1875 167.710938 C 213.910156 169.039062 214.359375 170.460938 215.140625 171.726562 C 215.148438 171.597656 215.105469 171.480469 215.066406 171.363281 C 213.484375 166.523438 212.691406 161.542969 212.523438 156.460938 C 212.445312 154.0625 212.457031 151.664062 212.394531 149.269531 C 212.265625 144.4375 211.230469 139.820312 209.144531 135.449219 C 209.074219 135.304688 208.902344 135.152344 209.09375 134.960938 C 209.515625 135.085938 209.652344 135.582031 210.167969 135.765625 C 209.425781 133.859375 208.390625 132.21875 207.246094 130.660156 C 201.90625 123.390625 194.695312 118.976562 185.996094 116.78125 C 189.222656 116.585938 192.382812 116.832031 195.523438 117.519531 C 198.648438 118.203125 201.59375 119.378906 204.480469 120.746094 C 201.1875 117.421875 197.464844 114.753906 193.199219 112.871094 C 190.894531 111.855469 188.484375 111.210938 186.03125 110.691406 C 185.824219 110.648438 185.546875 110.644531 185.5 110.417969 C 185.441406 110.15625 185.746094 110.125 185.914062 110.023438 C 187.410156 109.152344 188.710938 108.046875 189.832031 106.734375 C 191.5625 104.710938 193.234375 102.636719 195.277344 100.90625 C 196.007812 100.289062 196.757812 99.691406 197.496094 99.085938 C 197.25 99.050781 197.058594 99.109375 196.875 99.1875 C 194.96875 100.015625 193.289062 101.191406 191.714844 102.523438 C 188.75 105.027344 185.390625 106.351562 181.457031 106.078125 C 179.722656 105.957031 177.984375 105.90625 176.246094 105.925781 C 170.546875 105.984375 165.171875 107.230469 160.273438 110.238281 C 159.859375 110.492188 159.550781 110.480469 159.128906 110.222656 C 153.164062 106.578125 146.617188 105.558594 139.761719 106.015625 C 136.3125 106.246094 132.957031 106.105469 129.945312 104.101562 C 128.605469 103.207031 127.410156 102.125 126.09375 101.203125 C 124.730469 100.242188 123.320312 99.363281 121.699219 98.890625 C 123.921875 100.480469 125.914062 102.3125 127.671875 104.386719 C 129.5 106.539062 131.25 108.761719 133.796875 110.144531 C 133.90625 110.203125 134.050781 110.296875 133.96875 110.441406 C 133.910156 110.539062 133.773438 110.621094 133.65625 110.648438 C 133.042969 110.800781 132.425781 110.933594 131.808594 111.074219 C 125.296875 112.5625 119.859375 115.960938 115.0625 120.492188 C 114.933594 120.617188 114.832031 120.769531 114.71875 120.910156 C 116.691406 119.925781 118.675781 119.078125 120.734375 118.402344 C 122.816406 117.71875 124.960938 117.296875 127.125 116.964844 C 129.792969 116.550781 132.910156 116.5 133.511719 116.921875 C 130.015625 117.765625 126.714844 118.976562 123.621094 120.71875 C 120.546875 122.449219 117.773438 124.570312 115.285156 127.074219 C 112.640625 129.742188 109.660156 134.160156 109.449219 135.742188 C 109.828125 135.546875 109.992188 135.058594 110.574219 134.917969 C 109.476562 137.273438 108.667969 139.578125 108.0625 141.957031 C 107.097656 145.75 107.035156 149.613281 107.089844 153.496094 C 107.144531 157.378906 106.742188 161.222656 106.027344 165.039062 C 105.59375 167.351562 105.066406 169.632812 104.328125 171.871094 C 105.15625 170.585938 105.550781 169.09375 106.347656 167.785156 C 106.441406 170.234375 106.886719 172.59375 107.460938 174.9375 C 107.332031 171.59375 107.871094 168.320312 108.378906 165.035156 C 108.878906 161.832031 109.144531 158.609375 108.953125 155.355469 C 108.917969 154.8125 108.78125 154.242188 109.050781 153.628906 C 109.585938 154.339844 109.886719 155.148438 110.800781 155.628906 C 110.210938 153.929688 110.003906 152.332031 110.082031 150.726562 C 110.292969 146.195312 111.8125 142.117188 114.582031 138.535156 C 119.304688 132.429688 125.546875 128.621094 132.921875 126.566406 C 133.609375 126.371094 134.300781 126.128906 135.082031 126.230469 C 132.566406 127.824219 130.085938 129.4375 127.84375 131.390625 C 125.609375 133.34375 123.632812 135.523438 121.878906 137.910156 C 120.214844 140.175781 117.707031 144.566406 117.671875 145.621094 C 120.058594 142.605469 125.039062 138.777344 126.941406 138.574219 C 125.039062 140.648438 123.542969 142.902344 122.289062 145.3125 C 121.035156 147.730469 120.085938 150.269531 119.488281 152.933594 C 118.898438 155.570312 118.585938 158.226562 118.859375 161.152344 C 119.082031 160.542969 119.203125 160.140625 119.367188 159.757812 C 119.996094 158.273438 120.996094 157.117188 122.445312 156.382812 C 122.605469 156.300781 122.785156 156.144531 122.949219 156.277344 C 123.125 156.417969 122.996094 156.625 122.949219 156.792969 C 122.597656 158.066406 122.339844 159.355469 122.222656 160.671875 C 121.835938 164.933594 122.628906 168.90625 125.113281 172.460938 C 125.203125 172.589844 125.242188 172.8125 125.488281 172.773438 C 125.496094 168.605469 127.4375 164.933594 128.941406 163.914062 C 129.054688 164.199219 128.863281 164.421875 128.78125 164.65625 C 128.097656 166.621094 128.070312 168.585938 128.777344 170.542969 C 129.445312 172.382812 130.421875 174.078125 131.335938 175.800781 C 132.007812 177.066406 132.703125 178.324219 133.441406 179.675781 C 133.921875 178.8125 134.246094 177.996094 134.820312 177.339844 C 135.082031 177.039062 135.179688 176.726562 135.175781 176.335938 C 135.140625 174.472656 135.496094 172.664062 136.007812 170.886719 C 136.351562 169.691406 136.773438 168.511719 137.164062 167.328125 C 136.199219 168.269531 135.625 169.441406 135.042969 170.617188 C 134.460938 171.800781 134.203125 173.105469 133.742188 174.441406 C 133.371094 173.867188 133.4375 173.34375 133.355469 172.859375 C 132.863281 169.914062 132.644531 166.960938 132.917969 163.96875 C 133.128906 161.703125 133.667969 159.507812 134.125 157.292969 C 134.210938 156.875 134.28125 156.453125 134.152344 156.042969 C 133.984375 155.515625 133.667969 155.363281 133.214844 155.765625 C 132.6875 156.226562 132.339844 156.816406 132.054688 157.445312 C 131.8125 157.988281 131.589844 158.542969 131.265625 159.300781 C 130.726562 157.375 130.808594 155.675781 131.40625 153.84375 C 130.175781 154.402344 129.742188 155.484375 128.925781 156.316406 C 128.917969 156.109375 128.890625 156.027344 128.914062 155.960938 C 129.011719 155.691406 129.109375 155.417969 129.234375 155.15625 C 130.371094 152.769531 131.945312 150.710938 133.882812 148.917969 C 134.136719 148.679688 134.570312 148.464844 134.414062 148.039062 C 134.273438 147.664062 133.820312 147.617188 133.460938 147.578125 C 133.019531 147.53125 132.566406 147.535156 132.125 147.589844 C 130.835938 147.746094 129.609375 148.140625 128.40625 148.625 C 128.101562 148.75 127.835938 149.011719 127.335938 148.933594 C 129.007812 145.75 131.578125 143.5625 134.695312 141.679688 C 134.085938 141.554688 133.699219 141.492188 133.320312 141.398438 C 133.128906 141.351562 132.855469 141.328125 132.855469 141.0625 C 132.855469 140.851562 133.09375 140.8125 133.261719 140.738281 C 134.058594 140.382812 134.902344 140.1875 135.75 139.980469 C 136.480469 139.800781 137.246094 139.941406 138.0625 139.707031 C 137.464844 139.210938 136.726562 139.371094 136.210938 138.921875 C 138.617188 138.535156 140.917969 139.101562 143.265625 139.792969 C 143.140625 139.234375 142.65625 138.875 142.710938 138.152344 C 143.664062 139.1875 144.457031 140.171875 145.472656 140.921875 C 146.5 141.679688 147.601562 142.257812 148.921875 142.472656 C 148.882812 142.179688 148.496094 142.0625 148.671875 141.6875 C 149.253906 141.96875 149.816406 142.292969 150.414062 142.519531 C 152.976562 143.476562 155.554688 142.234375 156.003906 139.796875 C 156.242188 138.484375 156.121094 137.164062 155.652344 135.898438 C 153.914062 131.1875 150.414062 128.601562 145.605469 127.597656 C 145.238281 127.519531 144.863281 127.457031 144.488281 127.390625 C 149.210938 126.863281 153.210938 128.496094 156.769531 131.46875 C 156.054688 129.496094 154.542969 128.226562 153.027344 126.925781 C 154.433594 127.257812 155.605469 128.027344 156.855469 128.640625 C 154.996094 126.03125 152.238281 124.789062 149.363281 123.707031 C 152.585938 123.855469 155.414062 125.058594 158.164062 127.058594 C 157.464844 124.746094 156.273438 123.089844 154.324219 121.832031 C 154.574219 121.800781 154.652344 121.765625 154.714844 121.785156 C 154.914062 121.847656 155.113281 121.914062 155.308594 122 C 156.746094 122.632812 158.046875 123.480469 159.132812 124.617188 C 159.574219 125.082031 159.851562 125.132812 160.316406 124.632812 C 161.410156 123.464844 162.75 122.625 164.210938 121.976562 C 164.46875 121.863281 164.734375 121.710938 165.113281 121.777344 C 162.695312 123.960938 161.757812 125.226562 161.257812 127.019531 C 163.933594 124.96875 166.859375 123.894531 170.117188 123.691406 C 167.175781 124.8125 164.328125 126.058594 162.425781 128.753906 C 163.6875 128.035156 164.941406 127.300781 166.410156 126.984375 C 164.84375 128.210938 163.453125 129.554688 162.6875 131.464844 C 166.265625 128.328125 170.386719 126.90625 175.230469 127.1875 C 175.003906 127.46875 174.828125 127.429688 174.679688 127.449219 C 172.101562 127.835938 169.699219 128.699219 167.710938 130.414062 C 164.984375 132.757812 163.152344 135.59375 163.394531 139.386719 C 163.503906 141.121094 164.652344 142.386719 166.351562 142.726562 C 167.683594 142.988281 168.90625 142.652344 170.085938 142.058594 C 170.324219 141.9375 170.519531 141.652344 170.84375 141.773438 C 170.9375 142.085938 170.507812 142.183594 170.597656 142.503906 C 173.246094 142.074219 175.011719 140.339844 176.757812 138.242188 C 176.742188 138.964844 176.34375 139.300781 176.222656 139.808594 C 178.558594 139.035156 180.867188 138.621094 183.257812 138.894531 C 182.742188 139.332031 182.019531 139.207031 181.402344 139.71875 C 181.902344 139.769531 182.261719 139.820312 182.628906 139.835938 C 183.824219 139.890625 184.964844 140.199219 186.074219 140.636719 C 186.300781 140.726562 186.667969 140.789062 186.621094 141.105469 C 186.578125 141.40625 186.199219 141.363281 185.96875 141.464844 C 185.683594 141.589844 185.332031 141.429688 184.996094 141.75 C 188.007812 143.550781 190.554688 145.78125 192.324219 149.121094 C 191.109375 148.628906 190.117188 148.207031 189.078125 147.957031 C 187.957031 147.6875 186.832031 147.332031 185.65625 147.703125 C 185.09375 147.878906 184.996094 148.171875 185.410156 148.609375 C 185.539062 148.742188 185.675781 148.863281 185.808594 148.992188 C 187.753906 150.816406 189.328125 152.910156 190.441406 155.335938 C 190.566406 155.613281 190.78125 155.875 190.652344 156.324219 C 190.257812 155.828125 189.925781 155.367188 189.550781 154.949219 C 189.160156 154.515625 188.78125 154.046875 188.15625 153.832031 C 188.757812 156.835938 188.777344 157.839844 188.253906 159.046875 C 188.078125 158.9375 188.039062 158.757812 187.980469 158.585938 C 187.640625 157.574219 187.125 156.660156 186.421875 155.855469 C 186.234375 155.640625 186 155.398438 185.683594 155.507812 C 185.339844 155.625 185.246094 155.953125 185.253906 156.28125 C 185.261719 156.648438 185.265625 157.027344 185.355469 157.375 C 186.59375 162.089844 187.070312 166.855469 186.34375 171.703125 C 186.210938 172.582031 186.179688 173.492188 185.792969 174.34375 C 185.082031 171.640625 184 169.15625 182.144531 167.046875 Z M 141.910156 188.300781 C 142.140625 187.757812 142.316406 187.324219 142.507812 186.894531 C 142.726562 186.40625 142.988281 186.273438 143.320312 186.8125 C 143.488281 187.082031 143.671875 187.339844 143.867188 187.589844 C 144.875 188.871094 146.167969 189.550781 147.824219 189.527344 C 149.011719 189.511719 150.105469 189.148438 151.191406 188.742188 C 153.144531 188.011719 155.117188 187.359375 157.152344 186.902344 C 157.53125 186.816406 157.960938 186.878906 158.34375 186.5625 C 156.601562 186.070312 154.992188 185.417969 153.542969 184.4375 C 150.773438 182.570312 148.644531 180.195312 148.226562 176.757812 C 147.960938 174.566406 148.09375 172.335938 148.195312 170.125 C 148.246094 169.035156 148.761719 168.117188 149.53125 167.332031 C 150.777344 166.058594 152.332031 165.398438 154.027344 164.996094 C 156.964844 164.300781 159.949219 164.464844 162.921875 164.582031 C 164.496094 164.644531 166.066406 164.96875 167.519531 165.636719 C 170.535156 167.019531 171.613281 168.8125 171.480469 171.550781 C 171.417969 172.863281 171.46875 174.1875 171.46875 175.503906 C 171.46875 176.300781 171.367188 177.085938 171.132812 177.84375 C 170.054688 181.378906 167.601562 183.691406 164.40625 185.316406 C 163.4375 185.8125 162.417969 186.203125 161.382812 186.585938 C 162.289062 186.878906 163.183594 187.089844 164.070312 187.316406 C 165.992188 187.804688 167.796875 188.636719 169.683594 189.21875 C 172.414062 190.0625 174.550781 189.28125 176.117188 186.917969 C 176.160156 186.851562 176.203125 186.785156 176.242188 186.714844 C 176.488281 186.265625 176.730469 186.265625 176.9375 186.738281 C 177.152344 187.234375 177.34375 187.734375 177.5625 188.273438 C 177.660156 188.167969 177.726562 188.121094 177.757812 188.058594 C 177.859375 187.875 177.953125 187.683594 178.046875 187.496094 C 178.851562 185.820312 179.105469 184.03125 179.140625 182.199219 C 179.144531 182.003906 179.046875 181.71875 179.292969 181.640625 C 179.59375 181.546875 179.691406 181.859375 179.78125 182.054688 C 179.996094 182.53125 180.175781 183.027344 180.414062 183.625 C 180.808594 181.632812 180.378906 179.917969 179.480469 178.285156 C 179.53125 179.039062 179.761719 179.773438 179.691406 180.535156 C 179.667969 180.808594 179.59375 181.1875 179.269531 181.035156 C 178.566406 180.699219 178.632812 181.128906 178.578125 181.574219 C 178.496094 182.28125 178.375 182.984375 178.113281 183.652344 C 177.984375 183.972656 177.957031 184.371094 177.488281 184.613281 C 177.433594 184.132812 177.425781 183.71875 177.328125 183.328125 C 176.644531 180.660156 176.796875 178.007812 177.34375 175.34375 C 178.097656 171.65625 178.21875 167.96875 177.199219 164.308594 C 175.222656 157.226562 171.636719 150.964844 167.324219 145.078125 C 167.082031 144.746094 166.761719 144.535156 166.386719 144.386719 C 164.242188 143.535156 162.257812 142.394531 160.382812 141.0625 C 159.882812 140.707031 159.53125 140.730469 159.050781 141.066406 C 157.238281 142.339844 155.339844 143.480469 153.265625 144.292969 C 152.648438 144.535156 152.195312 144.90625 151.800781 145.425781 C 148.921875 149.226562 146.585938 153.347656 144.570312 157.65625 C 141.875 163.433594 140.59375 169.410156 142.199219 175.761719 C 142.957031 178.738281 142.574219 181.691406 141.910156 184.640625 C 141.589844 184.550781 141.582031 184.25 141.492188 184.023438 C 141.160156 183.1875 140.917969 182.328125 140.835938 181.425781 C 140.816406 181.214844 140.878906 180.796875 140.429688 180.976562 C 139.832031 181.210938 139.785156 180.789062 139.785156 180.421875 C 139.78125 179.820312 139.851562 179.21875 139.894531 178.613281 C 139.070312 180.140625 138.679688 181.714844 139.125 183.601562 C 139.324219 183.042969 139.441406 182.667969 139.59375 182.308594 C 139.703125 182.050781 139.785156 181.613281 140.078125 181.660156 C 140.480469 181.726562 140.308594 182.179688 140.320312 182.464844 C 140.414062 184.484375 140.730469 186.441406 141.910156 188.300781 Z M 155.710938 212.261719 C 154.46875 211.453125 153.882812 210.328125 152.976562 209.476562 C 153.09375 210.160156 153.207031 210.84375 153.324219 211.542969 C 152.96875 211.535156 152.871094 211.28125 152.765625 211.09375 C 151.953125 209.621094 150.824219 208.414062 149.601562 207.277344 C 148.949219 206.667969 148.585938 205.875 148.3125 205.039062 C 147.875 203.695312 147.808594 202.300781 147.820312 200.898438 C 147.839844 198.273438 147.746094 195.660156 147.125 192.953125 C 147.003906 193.59375 146.882812 194.105469 146.808594 194.625 C 146.460938 197.011719 146.703125 199.410156 146.652344 201.804688 C 146.589844 204.832031 147.683594 207.417969 149.800781 209.5625 C 151.226562 211.007812 152.664062 212.441406 154.132812 213.835938 C 157.425781 216.960938 161.90625 217.074219 165.085938 214.082031 C 166.738281 212.535156 168.339844 210.925781 169.90625 209.292969 C 171.46875 207.664062 172.367188 205.683594 172.65625 203.453125 C 172.980469 200.964844 172.796875 198.453125 172.765625 195.957031 C 172.753906 195.050781 172.632812 194.117188 172.261719 193.101562 C 172.039062 194.359375 171.867188 195.46875 171.761719 196.597656 C 171.546875 198.804688 171.75 201.023438 171.492188 203.226562 C 171.292969 204.925781 170.800781 206.496094 169.503906 207.667969 C 168.472656 208.597656 167.628906 209.660156 166.898438 210.828125 C 166.726562 211.101562 166.601562 211.445312 166.175781 211.578125 C 166.136719 210.832031 166.589844 210.167969 166.457031 209.414062 C 166.128906 209.570312 165.996094 209.835938 165.824219 210.058594 C 165.363281 210.667969 164.925781 211.296875 164.34375 211.800781 C 164.210938 211.917969 164.0625 212.117188 163.875 212.019531 C 163.652344 211.90625 163.8125 211.695312 163.851562 211.527344 C 163.910156 211.261719 164.046875 211 163.894531 210.683594 C 163.417969 211.238281 163.328125 212.0625 162.53125 212.425781 C 162.53125 211.921875 162.53125 211.496094 162.53125 210.980469 C 162.121094 211.519531 161.886719 212.058594 161.441406 212.433594 C 161.324219 212.535156 161.171875 212.648438 161.023438 212.519531 C 160.902344 212.417969 160.992188 212.28125 161.03125 212.15625 C 161.171875 211.761719 161.378906 211.378906 161.214844 210.898438 C 160.953125 211.332031 160.933594 211.898438 160.417969 212.066406 C 160.078125 212.179688 160.292969 211.652344 160.027344 211.617188 C 159.589844 212.121094 159.59375 212.117188 159.339844 211.84375 C 159.105469 211.589844 158.816406 212.492188 158.578125 211.808594 C 158.453125 211.441406 158.277344 211.09375 158.09375 210.667969 C 157.9375 211.367188 158.414062 211.914062 158.265625 212.601562 C 157.570312 212.351562 157.34375 211.710938 156.925781 211.148438 C 156.925781 211.394531 156.933594 211.523438 156.925781 211.652344 C 156.910156 211.851562 157.027344 212.144531 156.796875 212.21875 C 156.519531 212.316406 156.402344 212.007812 156.289062 211.816406 C 155.992188 211.304688 155.722656 210.769531 155.355469 210.09375 C 155.480469 210.855469 155.574219 211.445312 155.710938 212.261719 Z M 196.773438 183.390625 C 195.839844 188.09375 193.777344 192.078125 191.234375 195.851562 C 193.792969 193.429688 195.609375 190.53125 196.792969 187.195312 C 197.089844 188.21875 197.34375 189.210938 197.507812 190.214844 C 197.617188 190.90625 197.816406 190.839844 198.265625 190.472656 C 201.183594 188.074219 202.707031 184.917969 203.34375 181.269531 C 203.421875 180.820312 203.484375 180.367188 203.554688 179.917969 C 203.648438 179.921875 203.742188 179.925781 203.835938 179.929688 C 205.316406 183.375 204.648438 186.945312 204.285156 190.503906 C 205.1875 188.125 205.933594 185.726562 205.886719 183.144531 C 205.847656 181.089844 205.90625 179.03125 206.355469 177.011719 C 206.507812 176.335938 206.648438 175.644531 207.152344 174.894531 C 207.417969 176.539062 207.570312 178.042969 208.191406 179.429688 C 207.429688 175.214844 208.417969 170.972656 207.953125 166.753906 C 207.742188 167.324219 207.609375 167.902344 207.460938 168.476562 C 206.515625 172.03125 204.976562 175.433594 204.695312 179.160156 C 204.683594 179.285156 204.679688 179.441406 204.511719 179.472656 C 204.359375 179.496094 204.273438 179.382812 204.195312 179.277344 C 204.039062 179.0625 203.882812 178.851562 203.753906 178.621094 C 203.261719 177.769531 202.777344 176.910156 202.292969 176.050781 C 202.167969 176.421875 202.164062 176.753906 202.171875 177.082031 C 202.25 180.910156 201.410156 184.507812 199.445312 187.816406 C 199.289062 188.078125 199.164062 188.535156 198.863281 188.492188 C 198.496094 188.441406 198.648438 187.96875 198.589844 187.679688 C 198.304688 186.191406 197.722656 184.835938 196.773438 183.390625 Z M 117.265625 175.925781 C 117.09375 176.210938 116.996094 176.355469 116.917969 176.511719 C 116.460938 177.402344 115.992188 178.285156 115.410156 179.105469 C 115.292969 179.269531 115.1875 179.527344 114.953125 179.488281 C 114.675781 179.441406 114.78125 179.152344 114.746094 178.957031 C 114.570312 177.949219 114.445312 176.925781 114.222656 175.925781 C 113.539062 172.890625 112.242188 170.035156 111.601562 166.984375 C 111.585938 166.910156 111.539062 166.832031 111.40625 166.90625 C 111.089844 171.117188 112.023438 175.359375 111.234375 179.582031 C 111.898438 178.148438 111.957031 176.570312 112.335938 174.917969 C 112.785156 175.648438 112.941406 176.308594 113.105469 176.960938 C 113.683594 179.265625 113.546875 181.617188 113.589844 183.960938 C 113.628906 186.363281 114.394531 188.601562 115.179688 190.835938 C 114.726562 187.167969 114.109375 183.5 115.800781 179.96875 C 116.085938 180.898438 116.214844 181.835938 116.449219 182.746094 C 117.222656 185.785156 118.664062 188.425781 121.136719 190.4375 C 121.5625 190.785156 121.808594 190.890625 121.925781 190.167969 C 122.074219 189.222656 122.34375 188.300781 122.566406 187.371094 C 123.917969 190.648438 125.648438 193.597656 128.226562 195.996094 C 125.601562 192.171875 123.59375 188.070312 122.625 183.390625 C 121.535156 184.804688 121.078125 186.328125 120.738281 187.90625 C 120.695312 188.113281 120.808594 188.457031 120.480469 188.484375 C 120.253906 188.503906 120.1875 188.210938 120.085938 188.039062 C 118.65625 185.683594 117.820312 183.128906 117.429688 180.40625 C 117.222656 178.96875 117.339844 177.53125 117.265625 175.925781 Z M 184.226562 151.304688 C 184.140625 149.8125 184.265625 148.632812 183.632812 147.582031 C 183.46875 147.308594 183.269531 147.011719 182.929688 147 C 182.546875 146.980469 182.554688 147.386719 182.445312 147.628906 C 181.199219 150.394531 178.144531 151.46875 175.453125 150.085938 C 175.105469 149.902344 174.746094 149.738281 174.378906 149.597656 C 174.082031 149.488281 173.753906 149.402344 173.503906 149.699219 C 173.273438 149.96875 173.425781 150.246094 173.550781 150.511719 C 173.640625 150.699219 173.746094 150.882812 173.851562 151.066406 C 175.25 153.484375 177.316406 155.269531 179.457031 156.984375 C 179.910156 157.347656 180.078125 157.144531 180.238281 156.71875 C 180.761719 155.339844 181.675781 154.214844 182.925781 153.507812 C 184.015625 152.890625 184.425781 152.136719 184.226562 151.304688 Z M 135.363281 150.4375 C 135.363281 150.875 135.390625 151.167969 135.359375 151.453125 C 135.25 152.328125 135.539062 152.890625 136.355469 153.363281 C 137.671875 154.128906 138.707031 155.238281 139.269531 156.695312 C 139.476562 157.238281 139.699219 157.25 140.113281 156.910156 C 141.617188 155.703125 143.050781 154.421875 144.28125 152.933594 C 144.886719 152.203125 145.425781 151.417969 145.832031 150.554688 C 145.96875 150.257812 146.226562 149.945312 145.898438 149.617188 C 145.585938 149.304688 145.246094 149.511719 144.941406 149.628906 C 144.574219 149.769531 144.222656 149.960938 143.871094 150.140625 C 141.261719 151.472656 138.097656 150.257812 137.019531 147.507812 C 136.765625 146.859375 136.535156 146.816406 136.03125 147.332031 C 135.726562 147.648438 135.570312 148.042969 135.480469 148.453125 C 135.320312 149.15625 135.382812 149.875 135.363281 150.4375 Z M 169.765625 200.351562 C 169.527344 201.085938 169.339844 201.65625 169.15625 202.230469 C 168.347656 204.808594 166.460938 206.089844 163.894531 206.347656 C 161.113281 206.625 158.3125 206.621094 155.53125 206.347656 C 153.007812 206.097656 151.105469 204.875 150.257812 202.34375 C 150.0625 201.765625 149.867188 201.183594 149.601562 200.394531 C 149.433594 201.453125 149.4375 202.289062 149.460938 203.121094 C 149.539062 205.839844 151.351562 207.902344 154.070312 208.179688 C 157.589844 208.535156 161.132812 208.421875 164.652344 208.265625 C 167.695312 208.132812 169.523438 206.308594 169.921875 203.527344 C 170.070312 202.523438 169.898438 201.527344 169.765625 200.351562 Z M 169.328125 193.320312 C 169.328125 193.015625 169.332031 192.515625 169.328125 192.015625 C 169.324219 191.203125 168.601562 191.15625 168.105469 191.011719 C 167.523438 190.847656 167.679688 191.480469 167.597656 191.769531 C 167.214844 193.082031 166.875 194.410156 166.542969 195.734375 C 166.394531 196.332031 166.261719 196.804688 165.449219 196.773438 C 164.925781 196.753906 164.628906 197.285156 164.351562 197.710938 C 164.253906 197.863281 164.257812 198.03125 164.410156 198.128906 C 165.425781 198.769531 165.535156 199.847656 165.742188 200.878906 C 165.816406 201.257812 165.773438 201.691406 166.347656 201.730469 C 166.90625 201.773438 167.355469 201.632812 167.550781 201.070312 C 168.410156 198.617188 169.457031 196.207031 169.328125 193.320312 Z M 150.128906 193.355469 C 149.972656 196.230469 151.039062 198.6875 151.960938 201.175781 C 152.152344 201.699219 152.5625 201.761719 153.050781 201.738281 C 153.59375 201.714844 153.636719 201.34375 153.71875 200.933594 C 153.925781 199.886719 154.011719 198.765625 155.058594 198.105469 C 155.1875 198.019531 155.203125 197.878906 155.109375 197.757812 C 154.746094 197.289062 154.464844 196.667969 153.722656 196.753906 C 153.25 196.808594 153.140625 196.550781 153.03125 196.195312 C 152.601562 194.785156 152.1875 193.367188 151.90625 191.921875 C 151.6875 190.808594 151.589844 190.78125 150.558594 191.304688 C 150.253906 191.457031 150.125 191.65625 150.128906 191.980469 C 150.136719 192.480469 150.128906 192.980469 150.128906 193.355469 Z M 169.074219 172.496094 C 169.222656 170.675781 168.453125 169.34375 166.871094 168.570312 C 166.300781 168.292969 165.707031 168.070312 165.085938 167.945312 C 162.035156 167.339844 158.960938 167.445312 155.890625 167.71875 C 154.492188 167.84375 153.136719 168.167969 151.949219 168.984375 C 150.828125 169.75 150.351562 170.808594 150.457031 172.175781 C 151.226562 170.027344 152.949219 169.152344 155 168.890625 C 158.140625 168.484375 161.3125 168.445312 164.449219 168.882812 C 166.609375 169.183594 168.449219 170.09375 169.074219 172.496094 Z M 159.460938 202.320312 C 161.210938 202.261719 162.765625 201.839844 164.160156 200.894531 C 164.394531 200.734375 164.597656 200.519531 164.785156 200.300781 C 164.929688 200.132812 164.984375 199.886719 164.816406 199.726562 C 164.640625 199.558594 164.484375 199.777344 164.335938 199.863281 C 163.839844 200.15625 163.367188 200.511719 162.839844 200.738281 C 160.160156 201.882812 157.609375 201.664062 155.222656 199.925781 C 155.054688 199.800781 154.867188 199.484375 154.636719 199.746094 C 154.441406 199.96875 154.597656 200.246094 154.792969 200.445312 C 154.921875 200.578125 155.0625 200.699219 155.207031 200.8125 C 156.488281 201.78125 157.960938 202.214844 159.460938 202.320312 Z M 162.585938 197.378906 C 161.90625 196.945312 161.207031 196.992188 160.539062 197.285156 C 159.9375 197.550781 159.390625 197.53125 158.792969 197.28125 C 158.109375 196.988281 157.398438 196.890625 156.710938 197.371094 C 157.609375 197.308594 158.363281 197.671875 159.085938 198.121094 C 159.46875 198.359375 159.832031 198.34375 160.195312 198.117188 C 160.921875 197.65625 161.707031 197.386719 162.585938 197.378906 Z M 140.078125 144.453125 C 141.773438 144.320312 141.777344 144.316406 143.199219 145.113281 C 143.390625 145.21875 143.546875 145.191406 143.707031 145.078125 C 143.902344 144.941406 143.960938 144.753906 143.90625 144.527344 C 143.8125 144.125 143.523438 143.914062 143.175781 143.761719 C 142.226562 143.339844 140.96875 143.601562 140.078125 144.453125 Z M 179.304688 144.3125 C 178.734375 143.8125 178.101562 143.597656 177.398438 143.582031 C 176.769531 143.566406 176.195312 143.726562 175.769531 144.222656 C 175.535156 144.492188 175.511719 144.808594 175.800781 145.066406 C 176.097656 145.328125 176.335938 145.152344 176.527344 144.898438 C 177.078125 144.167969 177.855469 144.265625 178.617188 144.320312 C 178.832031 144.335938 179.042969 144.503906 179.304688 144.3125 Z M 112.722656 136.074219 C 113.023438 136.015625 113.117188 135.738281 113.277344 135.542969 C 114.851562 133.59375 116.753906 132.035156 118.972656 130.863281 C 119.359375 130.660156 119.734375 130.421875 119.964844 131.070312 C 120.074219 131.375 120.28125 131.285156 120.4375 131.078125 C 120.59375 130.867188 120.730469 130.644531 120.875 130.421875 C 123.136719 126.917969 126.3125 124.691406 130.335938 123.652344 C 130.53125 123.601562 130.761719 123.621094 130.898438 123.324219 C 124.054688 122.28125 113.277344 129.867188 112.722656 136.074219 Z M 189.640625 123.78125 C 192.113281 124.484375 194.320312 125.667969 196.210938 127.421875 C 197.308594 128.441406 198.148438 129.640625 198.894531 130.921875 C 199.015625 131.136719 199.253906 131.585938 199.472656 131.097656 C 199.78125 130.417969 200.136719 130.6875 200.535156 130.894531 C 202.667969 132.011719 204.457031 133.542969 205.976562 135.398438 C 206.148438 135.609375 206.238281 135.921875 206.578125 135.964844 C 206.128906 129.863281 195.199219 122.136719 188.65625 123.339844 C 188.953125 123.714844 189.328125 123.691406 189.640625 123.78125 Z M 189.640625 123.78125 " fill-opacity="1" fill-rule="nonzero"/></g><g clip-path="url(#7e6e06fa2c)"><path fill="#282f37" d="M 217.101562 177.265625 C 216.804688 175.828125 216.789062 174.460938 216.269531 173.1875 C 216.371094 178.496094 215.769531 183.65625 213.367188 188.476562 C 213.761719 185.117188 214.5 181.769531 213.261719 178.4375 C 213.109375 178.03125 212.886719 177.632812 212.441406 177.355469 C 212.132812 177.832031 212.207031 178.375 212.125 178.863281 C 211.832031 180.636719 211.3125 182.332031 210.632812 183.988281 C 210.171875 185.109375 209.78125 186.261719 209.339844 187.390625 C 209.257812 187.597656 209.203125 187.957031 208.898438 187.898438 C 208.636719 187.847656 208.746094 187.519531 208.730469 187.3125 C 208.695312 186.894531 208.644531 186.492188 208.320312 186.078125 C 207.460938 190.117188 205.046875 193.1875 202.582031 196.230469 C 201.222656 197.910156 199.9375 199.636719 198.855469 201.507812 C 198.765625 201.664062 198.703125 201.949219 198.460938 201.875 C 198.226562 201.804688 198.324219 201.53125 198.324219 201.351562 C 198.320312 199.257812 198.320312 197.164062 198.273438 195.054688 C 197.546875 196.679688 196.234375 197.792969 194.972656 198.929688 C 192.980469 200.730469 191.066406 202.59375 189.546875 204.820312 C 189.480469 204.917969 189.375 204.984375 189.152344 205.195312 C 189.191406 203.421875 189.621094 201.792969 189.136719 200.027344 C 186.179688 202.722656 183.933594 205.835938 182.078125 209.316406 C 181.703125 207.890625 181.816406 206.414062 181.460938 204.808594 C 180.679688 207.207031 179.554688 209.195312 177.957031 210.898438 C 176.699219 212.242188 175.550781 213.667969 174.601562 215.246094 C 174.328125 215.699219 174.199219 216.246094 173.683594 216.734375 C 173.515625 215.089844 173.757812 213.589844 173.917969 211.898438 C 173.316406 212.757812 173.007812 213.554688 172.691406 214.34375 C 172.625 214.503906 172.585938 214.726562 172.386719 214.714844 C 172.195312 214.703125 172.171875 214.480469 172.113281 214.316406 C 171.742188 213.222656 171.742188 213.222656 170.882812 214.023438 C 169.40625 215.402344 168.199219 216.996094 167.167969 218.734375 C 167.019531 218.976562 166.957031 219.292969 166.578125 219.476562 C 166.257812 217.660156 166.367188 215.878906 166.535156 213.910156 C 164.964844 216.175781 163.167969 218.042969 161.929688 220.320312 C 161.242188 221.585938 160.566406 222.851562 160.03125 224.1875 C 159.960938 224.363281 159.9375 224.621094 159.707031 224.644531 C 159.445312 224.664062 159.441406 224.382812 159.371094 224.21875 C 158.046875 221.035156 156.246094 218.144531 154.046875 215.496094 C 153.640625 215.007812 153.332031 214.4375 152.914062 213.808594 C 153.058594 215.738281 153.097656 217.570312 152.878906 219.429688 C 152.460938 219.386719 152.429688 219.070312 152.300781 218.863281 C 151.128906 216.953125 149.828125 215.15625 148.105469 213.6875 C 147.6875 213.332031 147.476562 213.269531 147.363281 213.90625 C 147.308594 214.203125 147.285156 214.554688 146.886719 214.816406 C 146.429688 213.910156 146.09375 212.957031 145.511719 212.121094 C 145.671875 213.652344 145.792969 215.175781 145.828125 216.675781 C 145.628906 216.765625 145.558594 216.683594 145.515625 216.59375 C 144.488281 214.480469 143.0625 212.644531 141.46875 210.929688 C 139.886719 209.222656 138.695312 207.265625 137.855469 204.878906 C 137.511719 206.460938 137.65625 207.910156 137.300781 209.328125 C 135.433594 205.875 133.199219 202.742188 130.238281 200.046875 C 129.722656 201.773438 130.21875 203.382812 130.148438 205.066406 C 127.738281 201.203125 123.597656 198.976562 121.042969 195.183594 C 121.042969 197.417969 121.042969 199.644531 121.042969 201.851562 C 120.71875 201.917969 120.664062 201.714844 120.589844 201.578125 C 119.1875 199.046875 117.3125 196.863281 115.554688 194.589844 C 113.808594 192.332031 112.171875 190 111.410156 187.183594 C 111.3125 186.828125 111.25 186.464844 111.152344 186.011719 C 110.742188 186.539062 110.800781 187.082031 110.742188 187.601562 C 110.726562 187.742188 110.726562 187.9375 110.535156 187.933594 C 110.449219 187.933594 110.351562 187.792969 110.277344 187.703125 C 110.214844 187.625 110.171875 187.53125 110.136719 187.441406 C 108.96875 184.265625 107.425781 181.203125 107.152344 177.75 C 107.140625 177.609375 107.1875 177.410156 107.007812 177.367188 C 106.8125 177.316406 106.707031 177.503906 106.609375 177.640625 C 105.972656 178.507812 105.714844 179.503906 105.59375 180.550781 C 105.3125 182.964844 105.578125 185.34375 106.03125 187.710938 C 106.078125 187.945312 106.109375 188.1875 106.152344 188.460938 C 104.582031 187.40625 103.085938 179.257812 103.261719 172.722656 C 102.636719 174.261719 102.628906 175.75 102.269531 177.167969 C 101.992188 176.683594 101.964844 176.179688 101.9375 175.667969 C 101.757812 172.066406 102.546875 168.632812 103.746094 165.269531 C 104.328125 163.640625 105.085938 162.070312 105.402344 160.351562 C 105.539062 159.609375 105.527344 158.871094 105.492188 158.128906 C 105.480469 157.890625 105.496094 157.582031 105.238281 157.480469 C 105.007812 157.390625 104.851562 157.648438 104.6875 157.789062 C 103.320312 158.960938 102.203125 160.339844 101.347656 161.929688 C 101.242188 162.132812 101.230469 162.417969 100.832031 162.53125 C 101.171875 159.394531 102.003906 156.441406 103.070312 153.542969 C 104.132812 150.652344 105.429688 147.847656 106.292969 144.648438 C 104.414062 146.261719 103.058594 148.015625 101.996094 150.085938 C 101.746094 149.710938 101.914062 149.480469 101.976562 149.261719 C 102.855469 145.96875 104.34375 142.964844 106.289062 140.175781 C 107.238281 138.816406 108.226562 137.46875 108.746094 135.867188 C 108.871094 135.480469 109.15625 134.972656 108.800781 134.683594 C 108.476562 134.425781 108.074219 134.832031 107.738281 135.015625 C 106.402344 135.753906 105.261719 136.734375 104.269531 137.898438 C 104.128906 138.066406 103.976562 138.230469 103.820312 138.386719 C 103.792969 138.414062 103.726562 138.410156 103.613281 138.429688 C 103.691406 137.90625 104.011719 137.535156 104.269531 137.144531 C 106.589844 133.613281 109.570312 130.675781 112.648438 127.824219 C 113.015625 127.488281 113.367188 127.132812 113.773438 126.851562 C 114.292969 126.492188 114.210938 126.28125 113.722656 125.957031 C 111.394531 124.421875 109.632812 122.378906 108.457031 119.84375 C 106.957031 116.617188 106.515625 113.222656 106.796875 109.699219 C 106.949219 107.835938 107.238281 106.007812 107.882812 104.253906 C 109.585938 99.628906 113.855469 96.972656 119.183594 97.675781 C 123.984375 98.308594 128.203125 100.25 131.734375 103.609375 C 132.4375 104.28125 133.238281 104.8125 134.152344 105.179688 C 134.792969 105.441406 135.171875 105.230469 135.492188 104.671875 C 135.890625 103.964844 135.90625 103.207031 135.894531 102.4375 C 135.890625 102.277344 135.796875 102.050781 136.011719 101.976562 C 136.21875 101.910156 136.285156 102.136719 136.390625 102.265625 C 137.066406 103.097656 137.714844 103.960938 138.925781 104.015625 C 139.808594 104.054688 139.851562 103.996094 139.484375 103.203125 C 139.414062 103.050781 139.300781 102.90625 139.367188 102.578125 C 140.316406 103.113281 141.285156 103.546875 142.453125 103.703125 C 142.160156 103.15625 141.597656 102.929688 141.492188 102.207031 C 142.730469 102.960938 143.933594 103.460938 145.402344 103.535156 C 144.820312 102.96875 144.195312 102.632812 143.703125 101.851562 C 147.222656 102.242188 150.234375 103.578125 153.25 105.03125 C 152.164062 104.0625 151.082031 103.09375 149.976562 102.109375 C 150.253906 101.933594 150.40625 102.117188 150.566406 102.1875 C 153.628906 103.53125 156.433594 105.292969 158.960938 107.480469 C 159.523438 107.972656 159.882812 107.957031 160.445312 107.46875 C 162.914062 105.328125 165.671875 103.625 168.644531 102.28125 C 168.820312 102.203125 169.011719 102.160156 169.300781 102.230469 C 168.832031 102.660156 168.367188 103.09375 167.894531 103.523438 C 167.402344 103.96875 166.902344 104.40625 166.4375 104.925781 C 169.378906 103.46875 172.386719 102.234375 175.839844 101.820312 C 175.386719 102.609375 174.730469 102.957031 174.023438 103.53125 C 175.523438 103.460938 176.699219 102.957031 177.992188 102.261719 C 177.820312 102.9375 177.355469 103.203125 176.898438 103.710938 C 178.140625 103.566406 179.136719 103.214844 180.039062 102.566406 C 180.199219 102.9375 180.003906 103.105469 179.917969 103.296875 C 179.621094 103.964844 179.675781 104.046875 180.425781 104.015625 C 181.554688 103.972656 182.285156 103.300781 182.910156 102.457031 C 183.03125 102.292969 183.101562 101.984375 183.375 102.089844 C 183.574219 102.167969 183.5 102.441406 183.496094 102.628906 C 183.484375 103.414062 183.605469 104.152344 184.0625 104.820312 C 184.339844 105.222656 184.621094 105.355469 185.121094 105.210938 C 186.257812 104.878906 187.152344 104.175781 187.980469 103.398438 C 191.523438 100.066406 195.757812 98.25 200.53125 97.632812 C 205.605469 96.980469 209.976562 99.726562 211.605469 104.761719 C 213.21875 109.734375 213.132812 114.714844 211.019531 119.566406 C 209.914062 122.101562 208.1875 124.148438 205.953125 125.769531 C 205.125 126.371094 205.121094 126.355469 205.917969 127.058594 C 208.90625 129.675781 211.691406 132.496094 214.066406 135.691406 C 214.679688 136.519531 215.277344 137.367188 215.792969 138.394531 C 215.328125 138.355469 215.210938 138.058594 215.03125 137.855469 C 213.933594 136.585938 212.65625 135.542969 211.164062 134.769531 C 210.976562 134.671875 210.761719 134.488281 210.546875 134.660156 C 210.347656 134.820312 210.414062 135.082031 210.457031 135.292969 C 210.695312 136.476562 211.253906 137.527344 211.914062 138.523438 C 212.976562 140.136719 214.121094 141.695312 215.054688 143.394531 C 216.023438 145.160156 216.796875 147.007812 217.363281 148.941406 C 217.457031 149.253906 217.648438 149.578125 217.445312 150.054688 C 216.332031 147.996094 215.054688 146.175781 213.09375 144.699219 C 213.417969 146.003906 213.863281 147.097656 214.289062 148.191406 C 215.617188 151.582031 217.125 154.90625 217.941406 158.476562 C 218.242188 159.792969 218.578125 161.105469 218.652344 162.574219 C 218.273438 162.363281 218.207031 162.058594 218.074219 161.816406 C 217.226562 160.25 216.109375 158.902344 214.753906 157.753906 C 214.605469 157.628906 214.460938 157.421875 214.253906 157.488281 C 214 157.570312 214.03125 157.84375 214.011719 158.058594 C 213.863281 159.570312 214.105469 161.027344 214.636719 162.4375 C 215.59375 164.960938 216.566406 167.480469 217.046875 170.15625 C 217.414062 172.207031 217.703125 174.261719 217.421875 176.355469 C 217.386719 176.621094 217.378906 176.894531 217.101562 177.265625 Z M 180.757812 165.546875 C 180.808594 165.675781 180.851562 165.808594 180.90625 165.9375 C 181.988281 168.671875 182.804688 171.464844 182.78125 174.441406 C 182.78125 174.640625 182.800781 174.835938 182.9375 175 C 183.519531 175.703125 183.996094 176.476562 184.371094 177.308594 C 184.460938 177.265625 184.523438 177.253906 184.539062 177.222656 C 185.917969 174.535156 187.554688 171.976562 188.703125 169.175781 C 189.332031 167.644531 189.445312 166.046875 189.117188 164.433594 C 188.988281 163.816406 188.777344 163.214844 188.601562 162.605469 C 190.949219 164.820312 191.808594 167.652344 192.089844 170.808594 C 192.25 170.726562 192.296875 170.617188 192.363281 170.511719 C 192.636719 170.070312 192.945312 169.648438 193.1875 169.191406 C 195.414062 164.988281 195.648438 160.597656 194.398438 156.070312 C 194.335938 155.839844 194.097656 155.550781 194.296875 155.386719 C 194.539062 155.183594 194.792969 155.492188 195.011719 155.617188 C 196.433594 156.410156 197.421875 157.574219 197.941406 159.125 C 197.996094 159.292969 197.980469 159.523438 198.265625 159.59375 C 198.433594 157.8125 198.273438 156.066406 197.984375 154.339844 C 197.015625 148.488281 194.523438 143.335938 190.734375 138.765625 C 193.933594 140.394531 196.925781 142.261719 199.132812 145.167969 C 195.859375 137.246094 190.199219 131.464844 182.769531 127.207031 C 183.132812 127.007812 183.292969 127.101562 183.460938 127.140625 C 186.824219 127.871094 190.011719 129.085938 193.003906 130.78125 C 198.25 133.753906 202.453125 137.753906 204.871094 143.371094 C 206.375 146.863281 206.992188 150.484375 205.898438 154.242188 C 205.863281 154.363281 205.824219 154.480469 205.980469 154.636719 C 206.621094 154.304688 206.824219 153.554688 207.316406 153.0625 C 207.5625 153.339844 207.460938 153.621094 207.464844 153.878906 C 207.480469 155.613281 207.402344 157.351562 207.511719 159.078125 C 207.789062 163.449219 208.910156 167.722656 208.972656 172.125 C 209.570312 170.191406 209.761719 168.203125 209.941406 166.171875 C 210.621094 167.421875 211.042969 168.757812 211.777344 169.949219 C 211.785156 169.824219 211.746094 169.71875 211.710938 169.605469 C 210.222656 165.054688 209.476562 160.375 209.316406 155.597656 C 209.242188 153.34375 209.253906 151.085938 209.195312 148.835938 C 209.074219 144.292969 208.101562 139.953125 206.140625 135.84375 C 206.074219 135.707031 205.914062 135.5625 206.09375 135.386719 C 206.492188 135.5 206.617188 135.96875 207.101562 136.140625 C 206.40625 134.347656 205.433594 132.804688 204.355469 131.339844 C 199.335938 124.507812 192.554688 120.359375 184.378906 118.292969 C 187.410156 118.109375 190.382812 118.339844 193.335938 118.988281 C 196.273438 119.628906 199.042969 120.734375 201.757812 122.019531 C 198.660156 118.898438 195.160156 116.386719 191.148438 114.617188 C 188.984375 113.664062 186.714844 113.054688 184.410156 112.570312 C 184.21875 112.53125 183.957031 112.523438 183.910156 112.3125 C 183.859375 112.066406 184.140625 112.035156 184.300781 111.941406 C 185.707031 111.121094 186.933594 110.082031 187.984375 108.847656 C 189.609375 106.945312 191.183594 104.996094 193.105469 103.367188 C 193.789062 102.789062 194.496094 102.226562 195.191406 101.65625 C 194.957031 101.625 194.777344 101.679688 194.605469 101.753906 C 192.816406 102.53125 191.234375 103.636719 189.753906 104.890625 C 186.964844 107.242188 183.808594 108.488281 180.113281 108.230469 C 178.480469 108.117188 176.847656 108.070312 175.210938 108.085938 C 169.855469 108.144531 164.800781 109.3125 160.199219 112.144531 C 159.808594 112.382812 159.515625 112.367188 159.121094 112.128906 C 153.511719 108.703125 147.359375 107.742188 140.910156 108.171875 C 137.671875 108.386719 134.515625 108.253906 131.683594 106.371094 C 130.425781 105.535156 129.300781 104.515625 128.0625 103.648438 C 126.785156 102.746094 125.457031 101.921875 123.933594 101.472656 C 126.023438 102.96875 127.894531 104.691406 129.546875 106.640625 C 131.265625 108.664062 132.910156 110.753906 135.304688 112.054688 C 135.410156 112.109375 135.546875 112.199219 135.46875 112.335938 C 135.410156 112.425781 135.28125 112.503906 135.171875 112.53125 C 134.59375 112.671875 134.015625 112.796875 133.4375 112.929688 C 127.316406 114.328125 122.203125 117.523438 117.695312 121.785156 C 117.574219 121.898438 117.476562 122.042969 117.371094 122.171875 C 119.226562 121.25 121.089844 120.453125 123.027344 119.816406 C 124.984375 119.175781 127 118.777344 129.03125 118.464844 C 131.539062 118.078125 134.472656 118.027344 135.039062 118.425781 C 131.75 119.21875 128.648438 120.359375 125.738281 121.996094 C 122.847656 123.621094 120.238281 125.617188 117.902344 127.96875 C 115.414062 130.476562 112.613281 134.632812 112.417969 136.117188 C 112.769531 135.933594 112.925781 135.476562 113.472656 135.34375 C 112.441406 137.558594 111.683594 139.726562 111.113281 141.960938 C 110.203125 145.527344 110.144531 149.160156 110.199219 152.808594 C 110.25 156.460938 109.871094 160.074219 109.199219 163.664062 C 108.789062 165.835938 108.296875 167.980469 107.601562 170.082031 C 108.378906 168.875 108.75 167.472656 109.5 166.242188 C 109.585938 168.546875 110.007812 170.765625 110.546875 172.964844 C 110.425781 169.824219 110.933594 166.746094 111.410156 163.660156 C 111.878906 160.644531 112.132812 157.613281 111.949219 154.558594 C 111.917969 154.046875 111.789062 153.511719 112.042969 152.933594 C 112.542969 153.605469 112.828125 154.363281 113.6875 154.816406 C 113.132812 153.214844 112.9375 151.714844 113.011719 150.203125 C 113.210938 145.945312 114.636719 142.113281 117.242188 138.746094 C 121.679688 133.003906 127.550781 129.425781 134.480469 127.492188 C 135.128906 127.308594 135.78125 127.078125 136.511719 127.175781 C 134.148438 128.671875 131.816406 130.191406 129.710938 132.027344 C 127.609375 133.863281 125.75 135.910156 124.097656 138.15625 C 122.535156 140.285156 120.179688 144.414062 120.148438 145.40625 C 122.390625 142.570312 127.070312 138.972656 128.859375 138.78125 C 127.070312 140.730469 125.664062 142.847656 124.488281 145.117188 C 123.308594 147.390625 122.414062 149.777344 121.855469 152.28125 C 121.300781 154.757812 121.003906 157.257812 121.261719 160.007812 C 121.46875 159.433594 121.585938 159.054688 121.738281 158.695312 C 122.332031 157.300781 123.269531 156.214844 124.632812 155.523438 C 124.785156 155.449219 124.953125 155.300781 125.109375 155.425781 C 125.269531 155.554688 125.152344 155.75 125.105469 155.910156 C 124.777344 157.105469 124.535156 158.316406 124.421875 159.554688 C 124.0625 163.5625 124.804688 167.296875 127.144531 170.640625 C 127.226562 170.757812 127.265625 170.96875 127.492188 170.933594 C 127.503906 167.015625 129.324219 163.558594 130.742188 162.605469 C 130.847656 162.875 130.667969 163.082031 130.589844 163.304688 C 129.949219 165.148438 129.921875 166.996094 130.585938 168.835938 C 131.214844 170.566406 132.132812 172.15625 132.992188 173.777344 C 133.621094 174.96875 134.277344 176.152344 134.96875 177.421875 C 135.425781 176.609375 135.726562 175.84375 136.265625 175.226562 C 136.515625 174.945312 136.605469 174.648438 136.601562 174.28125 C 136.570312 172.53125 136.902344 170.828125 137.382812 169.160156 C 137.707031 168.035156 138.105469 166.925781 138.46875 165.8125 C 137.5625 166.699219 137.023438 167.796875 136.476562 168.902344 C 135.929688 170.019531 135.6875 171.246094 135.253906 172.5 C 134.90625 171.960938 134.964844 171.46875 134.890625 171.015625 C 134.425781 168.246094 134.222656 165.46875 134.480469 162.65625 C 134.675781 160.523438 135.183594 158.460938 135.613281 156.378906 C 135.695312 155.984375 135.761719 155.589844 135.636719 155.203125 C 135.480469 154.707031 135.1875 154.566406 134.757812 154.941406 C 134.261719 155.375 133.933594 155.929688 133.667969 156.523438 C 133.4375 157.03125 133.230469 157.550781 132.925781 158.265625 C 132.417969 156.457031 132.496094 154.859375 133.058594 153.136719 C 131.902344 153.660156 131.492188 154.679688 130.726562 155.460938 C 130.71875 155.265625 130.691406 155.1875 130.714844 155.128906 C 130.804688 154.871094 130.898438 154.617188 131.015625 154.371094 C 132.085938 152.128906 133.566406 150.191406 135.386719 148.503906 C 135.625 148.28125 136.035156 148.078125 135.886719 147.679688 C 135.753906 147.328125 135.324219 147.285156 134.992188 147.246094 C 134.578125 147.199219 134.148438 147.203125 133.734375 147.253906 C 132.519531 147.40625 131.367188 147.773438 130.238281 148.230469 C 129.953125 148.347656 129.703125 148.59375 129.234375 148.519531 C 130.804688 145.527344 133.21875 143.46875 136.152344 141.699219 C 135.574219 141.585938 135.210938 141.527344 134.855469 141.4375 C 134.675781 141.394531 134.417969 141.371094 134.417969 141.121094 C 134.417969 140.921875 134.644531 140.886719 134.800781 140.816406 C 135.550781 140.480469 136.347656 140.296875 137.140625 140.101562 C 137.828125 139.933594 138.550781 140.066406 139.316406 139.847656 C 138.753906 139.378906 138.0625 139.53125 137.574219 139.109375 C 139.835938 138.746094 142 139.277344 144.207031 139.925781 C 144.089844 139.402344 143.632812 139.0625 143.6875 138.386719 C 144.582031 139.359375 145.328125 140.28125 146.28125 140.988281 C 147.25 141.699219 148.285156 142.246094 149.523438 142.449219 C 149.488281 142.167969 149.125 142.0625 149.289062 141.710938 C 149.835938 141.972656 150.363281 142.277344 150.929688 142.488281 C 153.335938 143.390625 155.761719 142.222656 156.179688 139.929688 C 156.40625 138.695312 156.292969 137.457031 155.851562 136.265625 C 154.21875 131.839844 150.925781 129.40625 146.40625 128.460938 C 146.058594 128.390625 145.707031 128.332031 145.359375 128.265625 C 149.796875 127.769531 153.554688 129.304688 156.902344 132.101562 C 156.230469 130.246094 154.808594 129.054688 153.386719 127.832031 C 154.703125 128.144531 155.808594 128.867188 156.984375 129.445312 C 155.234375 126.992188 152.640625 125.824219 149.941406 124.804688 C 152.96875 124.945312 155.625 126.074219 158.210938 127.957031 C 157.554688 125.78125 156.433594 124.226562 154.601562 123.042969 C 154.839844 123.011719 154.914062 122.980469 154.96875 123 C 155.15625 123.054688 155.347656 123.117188 155.527344 123.199219 C 156.882812 123.792969 158.105469 124.589844 159.125 125.660156 C 159.539062 126.097656 159.800781 126.144531 160.238281 125.675781 C 161.265625 124.574219 162.523438 123.785156 163.898438 123.179688 C 164.140625 123.070312 164.390625 122.929688 164.746094 122.988281 C 162.476562 125.042969 161.589844 126.230469 161.121094 127.917969 C 163.636719 125.992188 166.386719 124.980469 169.449219 124.789062 C 166.6875 125.84375 164.007812 127.015625 162.21875 129.546875 C 163.40625 128.871094 164.582031 128.183594 165.964844 127.882812 C 164.492188 129.039062 163.183594 130.300781 162.46875 132.097656 C 165.828125 129.148438 169.707031 127.8125 174.257812 128.074219 C 174.042969 128.339844 173.882812 128.304688 173.738281 128.324219 C 171.316406 128.6875 169.058594 129.496094 167.1875 131.109375 C 164.625 133.316406 162.902344 135.980469 163.128906 139.546875 C 163.230469 141.175781 164.3125 142.367188 165.910156 142.683594 C 167.164062 142.933594 168.3125 142.613281 169.421875 142.054688 C 169.644531 141.945312 169.828125 141.675781 170.132812 141.789062 C 170.222656 142.082031 169.816406 142.175781 169.902344 142.472656 C 172.390625 142.074219 174.050781 140.441406 175.691406 138.46875 C 175.679688 139.148438 175.304688 139.464844 175.191406 139.941406 C 177.386719 139.214844 179.554688 138.828125 181.804688 139.082031 C 181.320312 139.492188 180.640625 139.375 180.0625 139.859375 C 180.527344 139.90625 180.871094 139.953125 181.210938 139.96875 C 182.339844 140.019531 183.410156 140.308594 184.453125 140.722656 C 184.664062 140.804688 185.007812 140.863281 184.964844 141.164062 C 184.925781 141.441406 184.570312 141.402344 184.351562 141.5 C 184.085938 141.617188 183.753906 141.464844 183.4375 141.769531 C 186.269531 143.460938 188.664062 145.558594 190.324219 148.695312 C 189.183594 148.234375 188.253906 147.839844 187.277344 147.601562 C 186.222656 147.347656 185.164062 147.015625 184.0625 147.363281 C 183.53125 147.527344 183.4375 147.804688 183.828125 148.214844 C 183.949219 148.339844 184.078125 148.457031 184.203125 148.574219 C 186.03125 150.289062 187.507812 152.257812 188.558594 154.539062 C 188.675781 154.796875 188.875 155.046875 188.757812 155.46875 C 188.382812 155 188.070312 154.570312 187.71875 154.175781 C 187.351562 153.769531 186.996094 153.328125 186.410156 153.125 C 186.976562 155.949219 186.992188 156.890625 186.5 158.03125 C 186.335938 157.925781 186.300781 157.757812 186.246094 157.59375 C 185.925781 156.644531 185.4375 155.785156 184.78125 155.027344 C 184.601562 154.828125 184.382812 154.597656 184.082031 154.699219 C 183.761719 154.808594 183.671875 155.121094 183.679688 155.429688 C 183.6875 155.773438 183.691406 156.128906 183.777344 156.457031 C 184.941406 160.890625 185.386719 165.367188 184.703125 169.925781 C 184.578125 170.753906 184.554688 171.609375 184.1875 172.40625 C 183.519531 169.867188 182.503906 167.53125 180.757812 165.546875 Z M 142.933594 185.53125 C 143.148438 185.019531 143.316406 184.609375 143.496094 184.207031 C 143.703125 183.75 143.945312 183.625 144.257812 184.132812 C 144.414062 184.382812 144.589844 184.628906 144.773438 184.859375 C 145.71875 186.066406 146.9375 186.703125 148.496094 186.683594 C 149.609375 186.667969 150.636719 186.324219 151.660156 185.941406 C 153.492188 185.257812 155.347656 184.644531 157.261719 184.214844 C 157.617188 184.132812 158.019531 184.191406 158.382812 183.898438 C 156.746094 183.433594 155.234375 182.820312 153.867188 181.898438 C 151.265625 180.144531 149.265625 177.910156 148.871094 174.679688 C 148.621094 172.617188 148.746094 170.519531 148.84375 168.441406 C 148.890625 167.417969 149.375 166.554688 150.097656 165.816406 C 151.269531 164.621094 152.730469 164 154.324219 163.621094 C 157.085938 162.964844 159.890625 163.121094 162.683594 163.230469 C 164.167969 163.292969 165.640625 163.597656 167.007812 164.222656 C 169.84375 165.523438 170.855469 167.207031 170.730469 169.78125 C 170.671875 171.019531 170.722656 172.261719 170.722656 173.5 C 170.722656 174.246094 170.625 174.984375 170.40625 175.699219 C 169.390625 179.023438 167.085938 181.195312 164.082031 182.726562 C 163.167969 183.1875 162.214844 183.558594 161.238281 183.917969 C 162.09375 184.191406 162.929688 184.390625 163.765625 184.601562 C 165.574219 185.0625 167.269531 185.84375 169.042969 186.390625 C 171.609375 187.183594 173.617188 186.453125 175.089844 184.230469 C 175.132812 184.167969 175.171875 184.105469 175.207031 184.039062 C 175.441406 183.617188 175.667969 183.617188 175.863281 184.058594 C 176.0625 184.527344 176.246094 185 176.449219 185.503906 C 176.542969 185.40625 176.601562 185.363281 176.636719 185.300781 C 176.730469 185.128906 176.816406 184.953125 176.90625 184.773438 C 177.660156 183.199219 177.898438 181.515625 177.933594 179.792969 C 177.9375 179.609375 177.84375 179.34375 178.078125 179.269531 C 178.359375 179.179688 178.449219 179.472656 178.535156 179.660156 C 178.738281 180.105469 178.90625 180.570312 179.128906 181.132812 C 179.5 179.261719 179.097656 177.648438 178.253906 176.113281 C 178.300781 176.824219 178.519531 177.511719 178.453125 178.230469 C 178.429688 178.484375 178.359375 178.84375 178.054688 178.699219 C 177.390625 178.382812 177.453125 178.789062 177.40625 179.207031 C 177.328125 179.871094 177.214844 180.53125 176.96875 181.160156 C 176.847656 181.460938 176.820312 181.835938 176.382812 182.066406 C 176.328125 181.609375 176.324219 181.222656 176.230469 180.855469 C 175.589844 178.347656 175.730469 175.851562 176.242188 173.347656 C 176.953125 169.882812 177.066406 166.414062 176.105469 162.972656 C 174.25 156.316406 170.878906 150.429688 166.824219 144.898438 C 166.59375 144.585938 166.296875 144.382812 165.941406 144.242188 C 163.929688 143.445312 162.0625 142.371094 160.300781 141.121094 C 159.832031 140.785156 159.496094 140.808594 159.046875 141.121094 C 157.34375 142.320312 155.558594 143.394531 153.609375 144.15625 C 153.027344 144.386719 152.601562 144.734375 152.230469 145.222656 C 149.523438 148.792969 147.328125 152.667969 145.433594 156.71875 C 142.898438 162.152344 141.695312 167.769531 143.207031 173.742188 C 143.914062 176.542969 143.558594 179.316406 142.933594 182.085938 C 142.628906 182.003906 142.625 181.722656 142.539062 181.507812 C 142.226562 180.722656 142 179.914062 141.925781 179.066406 C 141.90625 178.867188 141.964844 178.476562 141.542969 178.644531 C 140.980469 178.863281 140.933594 178.46875 140.933594 178.125 C 140.933594 177.558594 141 176.992188 141.039062 176.425781 C 140.261719 177.859375 139.894531 179.339844 140.3125 181.113281 C 140.503906 180.585938 140.609375 180.234375 140.757812 179.894531 C 140.859375 179.652344 140.9375 179.242188 141.210938 179.289062 C 141.589844 179.347656 141.425781 179.773438 141.4375 180.042969 C 141.527344 181.941406 141.824219 183.78125 142.933594 185.53125 Z M 155.90625 208.054688 C 154.738281 207.292969 154.191406 206.238281 153.335938 205.4375 C 153.445312 206.082031 153.550781 206.722656 153.660156 207.382812 C 153.328125 207.375 153.238281 207.132812 153.136719 206.957031 C 152.371094 205.570312 151.3125 204.4375 150.164062 203.371094 C 149.546875 202.796875 149.207031 202.050781 148.953125 201.265625 C 148.539062 200 148.480469 198.691406 148.488281 197.375 C 148.507812 194.90625 148.417969 192.449219 147.835938 189.902344 C 147.722656 190.507812 147.609375 190.988281 147.539062 191.472656 C 147.210938 193.71875 147.4375 195.976562 147.390625 198.226562 C 147.332031 201.070312 148.363281 203.5 150.351562 205.519531 C 151.691406 206.878906 153.042969 208.222656 154.425781 209.535156 C 157.519531 212.476562 161.730469 212.578125 164.722656 209.769531 C 166.273438 208.3125 167.777344 206.800781 169.253906 205.265625 C 170.722656 203.734375 171.566406 201.875 171.835938 199.777344 C 172.140625 197.433594 171.96875 195.074219 171.941406 192.726562 C 171.929688 191.875 171.8125 190.996094 171.464844 190.042969 C 171.257812 191.222656 171.097656 192.269531 170.996094 193.328125 C 170.796875 195.40625 170.988281 197.492188 170.742188 199.5625 C 170.554688 201.15625 170.09375 202.636719 168.875 203.738281 C 167.90625 204.613281 167.113281 205.609375 166.425781 206.707031 C 166.261719 206.964844 166.144531 207.289062 165.742188 207.414062 C 165.710938 206.710938 166.132812 206.089844 166.007812 205.378906 C 165.703125 205.527344 165.574219 205.773438 165.417969 205.984375 C 164.980469 206.558594 164.570312 207.148438 164.023438 207.621094 C 163.898438 207.730469 163.757812 207.917969 163.582031 207.828125 C 163.375 207.722656 163.523438 207.523438 163.558594 207.367188 C 163.617188 207.113281 163.742188 206.867188 163.597656 206.570312 C 163.152344 207.09375 163.070312 207.867188 162.316406 208.210938 C 162.316406 207.734375 162.316406 207.335938 162.316406 206.851562 C 161.933594 207.355469 161.714844 207.863281 161.292969 208.21875 C 161.183594 208.3125 161.042969 208.417969 160.898438 208.300781 C 160.785156 208.203125 160.871094 208.074219 160.910156 207.957031 C 161.039062 207.585938 161.234375 207.222656 161.082031 206.773438 C 160.835938 207.179688 160.816406 207.714844 160.332031 207.871094 C 160.011719 207.976562 160.214844 207.484375 159.964844 207.449219 C 159.550781 207.925781 159.554688 207.921875 159.320312 207.664062 C 159.097656 207.425781 158.824219 208.273438 158.605469 207.628906 C 158.484375 207.285156 158.320312 206.960938 158.148438 206.554688 C 158 207.214844 158.449219 207.726562 158.308594 208.375 C 157.65625 208.140625 157.445312 207.535156 157.050781 207.011719 C 157.050781 207.238281 157.058594 207.363281 157.046875 207.484375 C 157.035156 207.671875 157.144531 207.945312 156.929688 208.015625 C 156.667969 208.105469 156.554688 207.816406 156.453125 207.636719 C 156.171875 207.152344 155.917969 206.65625 155.574219 206.019531 C 155.6875 206.734375 155.78125 207.285156 155.90625 208.054688 Z M 194.511719 180.914062 C 193.632812 185.332031 191.695312 189.082031 189.300781 192.628906 C 191.707031 190.351562 193.417969 187.625 194.527344 184.492188 C 194.804688 185.453125 195.046875 186.386719 195.199219 187.332031 C 195.304688 187.976562 195.488281 187.917969 195.914062 187.570312 C 198.660156 185.320312 200.089844 182.347656 200.6875 178.917969 C 200.761719 178.496094 200.820312 178.070312 200.886719 177.648438 C 200.972656 177.652344 201.0625 177.65625 201.152344 177.660156 C 202.542969 180.898438 201.914062 184.257812 201.570312 187.601562 C 202.421875 185.363281 203.121094 183.109375 203.078125 180.683594 C 203.042969 178.75 203.097656 176.816406 203.519531 174.917969 C 203.660156 174.28125 203.792969 173.632812 204.265625 172.929688 C 204.515625 174.472656 204.660156 175.886719 205.246094 177.191406 C 204.53125 173.226562 205.457031 169.242188 205.023438 165.273438 C 204.820312 165.808594 204.699219 166.351562 204.554688 166.890625 C 203.667969 170.234375 202.222656 173.433594 201.957031 176.9375 C 201.949219 177.054688 201.945312 177.199219 201.785156 177.230469 C 201.644531 177.253906 201.558594 177.144531 201.488281 177.046875 C 201.34375 176.847656 201.195312 176.644531 201.070312 176.429688 C 200.609375 175.628906 200.15625 174.820312 199.699219 174.015625 C 199.582031 174.363281 199.578125 174.671875 199.585938 174.984375 C 199.65625 178.582031 198.871094 181.964844 197.023438 185.074219 C 196.875 185.320312 196.757812 185.75 196.476562 185.710938 C 196.128906 185.660156 196.269531 185.21875 196.21875 184.945312 C 195.949219 183.546875 195.40625 182.273438 194.511719 180.914062 Z M 119.765625 173.894531 C 119.605469 174.164062 119.511719 174.300781 119.4375 174.445312 C 119.007812 175.285156 118.566406 176.113281 118.019531 176.882812 C 117.910156 177.039062 117.8125 177.28125 117.589844 177.246094 C 117.328125 177.199219 117.429688 176.929688 117.394531 176.746094 C 117.230469 175.796875 117.113281 174.835938 116.902344 173.894531 C 116.261719 171.042969 115.042969 168.355469 114.441406 165.488281 C 114.425781 165.417969 114.382812 165.347656 114.257812 165.417969 C 113.957031 169.375 114.835938 173.363281 114.09375 177.335938 C 114.71875 175.988281 114.773438 174.503906 115.128906 172.949219 C 115.554688 173.632812 115.699219 174.257812 115.851562 174.871094 C 116.394531 177.035156 116.269531 179.25 116.308594 181.449219 C 116.34375 183.710938 117.066406 185.8125 117.804688 187.914062 C 117.375 184.464844 116.796875 181.015625 118.386719 177.695312 C 118.65625 178.570312 118.777344 179.453125 118.996094 180.308594 C 119.722656 183.164062 121.078125 185.648438 123.402344 187.539062 C 123.804688 187.863281 124.035156 187.960938 124.144531 187.285156 C 124.285156 186.398438 124.539062 185.53125 124.746094 184.65625 C 126.019531 187.738281 127.644531 190.507812 130.070312 192.761719 C 127.601562 189.167969 125.714844 185.3125 124.804688 180.914062 C 123.777344 182.242188 123.351562 183.675781 123.027344 185.160156 C 122.988281 185.355469 123.09375 185.675781 122.785156 185.703125 C 122.574219 185.722656 122.511719 185.445312 122.414062 185.28125 C 121.074219 183.070312 120.285156 180.667969 119.917969 178.109375 C 119.722656 176.753906 119.835938 175.402344 119.765625 173.894531 Z M 182.714844 150.75 C 182.632812 149.34375 182.75 148.238281 182.15625 147.25 C 182.003906 146.992188 181.8125 146.714844 181.496094 146.699219 C 181.136719 146.683594 181.144531 147.066406 181.042969 147.292969 C 179.871094 149.890625 176.996094 150.902344 174.46875 149.601562 C 174.140625 149.433594 173.800781 149.273438 173.457031 149.144531 C 173.175781 149.039062 172.867188 148.960938 172.632812 149.238281 C 172.417969 149.492188 172.5625 149.753906 172.679688 150.003906 C 172.761719 150.179688 172.859375 150.351562 172.960938 150.523438 C 174.277344 152.796875 176.21875 154.476562 178.234375 156.089844 C 178.65625 156.429688 178.8125 156.238281 178.964844 155.839844 C 179.460938 154.542969 180.316406 153.484375 181.492188 152.820312 C 182.515625 152.242188 182.902344 151.53125 182.714844 150.75 Z M 136.777344 149.933594 C 136.777344 150.34375 136.804688 150.621094 136.773438 150.886719 C 136.671875 151.710938 136.941406 152.238281 137.710938 152.683594 C 138.945312 153.40625 139.921875 154.445312 140.449219 155.816406 C 140.648438 156.328125 140.851562 156.335938 141.246094 156.019531 C 142.65625 154.882812 144.003906 153.679688 145.160156 152.28125 C 145.730469 151.59375 146.238281 150.855469 146.617188 150.046875 C 146.75 149.765625 146.988281 149.472656 146.679688 149.164062 C 146.386719 148.867188 146.070312 149.0625 145.78125 149.175781 C 145.4375 149.308594 145.109375 149.488281 144.777344 149.65625 C 142.324219 150.90625 139.347656 149.765625 138.335938 147.179688 C 138.09375 146.570312 137.878906 146.53125 137.40625 147.015625 C 137.117188 147.308594 136.972656 147.683594 136.886719 148.070312 C 136.738281 148.730469 136.796875 149.40625 136.777344 149.933594 Z M 169.121094 196.859375 C 168.898438 197.550781 168.71875 198.085938 168.546875 198.628906 C 167.785156 201.050781 166.015625 202.253906 163.601562 202.496094 C 160.988281 202.757812 158.351562 202.753906 155.738281 202.496094 C 153.367188 202.261719 151.578125 201.109375 150.78125 198.734375 C 150.597656 198.1875 150.414062 197.640625 150.164062 196.898438 C 150.007812 197.894531 150.007812 198.679688 150.03125 199.464844 C 150.105469 202.019531 151.8125 203.957031 154.363281 204.21875 C 157.671875 204.554688 161.003906 204.449219 164.3125 204.300781 C 167.171875 204.175781 168.890625 202.460938 169.269531 199.84375 C 169.40625 198.902344 169.246094 197.964844 169.121094 196.859375 Z M 168.710938 190.25 C 168.710938 189.964844 168.714844 189.492188 168.710938 189.023438 C 168.707031 188.257812 168.027344 188.210938 167.558594 188.078125 C 167.011719 187.921875 167.160156 188.519531 167.082031 188.789062 C 166.722656 190.027344 166.402344 191.273438 166.089844 192.519531 C 165.953125 193.078125 165.824219 193.523438 165.0625 193.496094 C 164.570312 193.480469 164.289062 193.976562 164.03125 194.375 C 163.9375 194.519531 163.941406 194.675781 164.085938 194.769531 C 165.042969 195.371094 165.144531 196.386719 165.335938 197.355469 C 165.40625 197.710938 165.367188 198.117188 165.90625 198.15625 C 166.433594 198.195312 166.851562 198.066406 167.039062 197.535156 C 167.847656 195.230469 168.832031 192.960938 168.710938 190.25 Z M 150.660156 190.28125 C 150.511719 192.984375 151.515625 195.292969 152.382812 197.636719 C 152.5625 198.125 152.945312 198.183594 153.40625 198.164062 C 153.917969 198.140625 153.957031 197.792969 154.035156 197.40625 C 154.230469 196.421875 154.308594 195.367188 155.292969 194.746094 C 155.414062 194.667969 155.429688 194.53125 155.34375 194.421875 C 155 193.980469 154.734375 193.394531 154.039062 193.476562 C 153.59375 193.527344 153.488281 193.285156 153.386719 192.949219 C 152.984375 191.625 152.597656 190.292969 152.328125 188.933594 C 152.125 187.886719 152.03125 187.859375 151.0625 188.351562 C 150.777344 188.496094 150.65625 188.683594 150.660156 188.988281 C 150.664062 189.460938 150.660156 189.929688 150.660156 190.28125 Z M 168.472656 170.671875 C 168.609375 168.960938 167.886719 167.710938 166.398438 166.980469 C 165.863281 166.71875 165.304688 166.511719 164.71875 166.394531 C 161.851562 165.824219 158.960938 165.921875 156.074219 166.183594 C 154.761719 166.300781 153.488281 166.601562 152.371094 167.367188 C 151.316406 168.089844 150.871094 169.085938 150.96875 170.371094 C 151.691406 168.351562 153.3125 167.53125 155.238281 167.28125 C 158.191406 166.902344 161.171875 166.863281 164.121094 167.273438 C 166.152344 167.554688 167.882812 168.410156 168.472656 170.671875 Z M 159.429688 198.710938 C 161.078125 198.652344 162.539062 198.257812 163.847656 197.371094 C 164.070312 197.21875 164.261719 197.019531 164.4375 196.8125 C 164.574219 196.65625 164.625 196.421875 164.464844 196.269531 C 164.300781 196.117188 164.15625 196.316406 164.015625 196.398438 C 163.546875 196.675781 163.105469 197.011719 162.609375 197.222656 C 160.089844 198.300781 157.691406 198.09375 155.449219 196.457031 C 155.289062 196.34375 155.113281 196.042969 154.898438 196.289062 C 154.714844 196.5 154.859375 196.757812 155.046875 196.949219 C 155.167969 197.070312 155.296875 197.1875 155.433594 197.292969 C 156.640625 198.203125 158.023438 198.609375 159.429688 198.710938 Z M 162.371094 194.066406 C 161.734375 193.65625 161.074219 193.703125 160.445312 193.976562 C 159.878906 194.226562 159.367188 194.207031 158.804688 193.972656 C 158.160156 193.699219 157.492188 193.605469 156.847656 194.058594 C 157.691406 194 158.402344 194.339844 159.078125 194.761719 C 159.441406 194.984375 159.78125 194.972656 160.121094 194.757812 C 160.808594 194.324219 161.542969 194.070312 162.371094 194.066406 Z M 141.207031 144.308594 C 142.804688 144.179688 142.808594 144.179688 144.144531 144.929688 C 144.324219 145.027344 144.472656 145.003906 144.625 144.894531 C 144.804688 144.765625 144.859375 144.59375 144.8125 144.375 C 144.722656 144 144.449219 143.800781 144.125 143.65625 C 143.230469 143.261719 142.050781 143.507812 141.207031 144.308594 Z M 178.085938 144.175781 C 177.550781 143.707031 176.957031 143.503906 176.296875 143.488281 C 175.703125 143.472656 175.164062 143.625 174.765625 144.089844 C 174.546875 144.347656 174.523438 144.644531 174.792969 144.882812 C 175.074219 145.128906 175.296875 144.964844 175.476562 144.726562 C 175.996094 144.042969 176.722656 144.132812 177.441406 144.183594 C 177.640625 144.199219 177.84375 144.355469 178.085938 144.175781 Z M 115.496094 136.433594 C 115.777344 136.375 115.863281 136.117188 116.015625 135.933594 C 117.496094 134.097656 119.285156 132.636719 121.367188 131.535156 C 121.734375 131.339844 122.085938 131.117188 122.300781 131.726562 C 122.402344 132.011719 122.601562 131.925781 122.746094 131.734375 C 122.890625 131.535156 123.023438 131.324219 123.15625 131.117188 C 125.285156 127.824219 128.269531 125.730469 132.050781 124.753906 C 132.234375 124.707031 132.453125 124.722656 132.578125 124.445312 C 126.148438 123.464844 116.015625 130.597656 115.496094 136.433594 Z M 187.804688 124.875 C 190.132812 125.535156 192.203125 126.648438 193.984375 128.296875 C 195.011719 129.253906 195.804688 130.382812 196.503906 131.589844 C 196.621094 131.789062 196.84375 132.210938 197.050781 131.753906 C 197.339844 131.113281 197.671875 131.367188 198.046875 131.5625 C 200.054688 132.609375 201.730469 134.050781 203.164062 135.796875 C 203.324219 135.992188 203.40625 136.289062 203.730469 136.328125 C 203.304688 130.589844 193.03125 123.328125 186.878906 124.460938 C 187.160156 124.8125 187.507812 124.789062 187.804688 124.875 Z M 187.804688 124.875 " fill-opacity="1" fill-rule="nonzero"/></g></svg>