<svg xmlns="http://www.w3.org/2000/svg" xmlns:xlink="http://www.w3.org/1999/xlink" width="200" zoomAndPan="magnify" viewBox="0 0 150 74.999997" height="100" preserveAspectRatio="xMidYMid meet" version="1.0"><defs><g/></defs><rect x="-15" width="180" fill="#ffffff" y="-7.5" height="89.999996" fill-opacity="1"/><rect x="-15" width="180" fill="#282f37" y="-7.5" height="89.999996" fill-opacity="1"/><g fill="#f5f5f5" fill-opacity="1"><g transform="translate(52.244768, 45.130405)"><g><path d="M 0.578125 0 L 0.578125 -8.203125 L 8.515625 -8.203125 L 8.515625 -7.34375 L 1.53125 -7.34375 L 1.53125 -4.65625 L 8.0625 -4.65625 L 8.0625 -3.8125 L 1.53125 -3.8125 L 1.53125 -0.84375 L 8.640625 -0.84375 L 8.640625 0 Z M 0.578125 0 "/></g></g></g><g fill="#f5f5f5" fill-opacity="1"><g transform="translate(61.110048, 45.130405)"><g><path d="M 3.21875 0 L 0.015625 -5.875 L 1 -5.875 L 3.8125 -0.796875 L 6.390625 -5.875 L 7.5625 -5.875 L 10.15625 -0.78125 L 10.171875 -0.78125 L 12.9375 -5.875 L 13.90625 -5.875 L 10.765625 0 L 9.59375 0 L 6.96875 -5.125 L 4.390625 0 Z M 3.21875 0 "/></g></g></g><g fill="#f5f5f5" fill-opacity="1"><g transform="translate(75.001316, 45.130405)"><g><path d="M 4.765625 0.234375 C 3.921875 0.234375 3.164062 0.09375 2.5 -0.1875 C 1.832031 -0.46875 1.304688 -0.851562 0.921875 -1.34375 C 0.535156 -1.832031 0.34375 -2.382812 0.34375 -3 C 0.34375 -3.601562 0.519531 -4.140625 0.875 -4.609375 C 1.226562 -5.078125 1.710938 -5.441406 2.328125 -5.703125 C 2.953125 -5.972656 3.660156 -6.109375 4.453125 -6.109375 C 5.242188 -6.109375 5.941406 -5.972656 6.546875 -5.703125 C 7.160156 -5.441406 7.640625 -5.078125 7.984375 -4.609375 C 8.335938 -4.140625 8.515625 -3.597656 8.515625 -2.984375 C 8.515625 -2.929688 8.507812 -2.863281 8.5 -2.78125 C 8.5 -2.695312 8.492188 -2.625 8.484375 -2.5625 L 1.375 -2.5625 C 1.425781 -2.175781 1.613281 -1.835938 1.9375 -1.546875 C 2.257812 -1.265625 2.675781 -1.035156 3.1875 -0.859375 C 3.695312 -0.691406 4.253906 -0.609375 4.859375 -0.609375 C 5.347656 -0.609375 5.820312 -0.660156 6.28125 -0.765625 C 6.75 -0.878906 7.171875 -1.023438 7.546875 -1.203125 C 7.921875 -1.390625 8.210938 -1.597656 8.421875 -1.828125 L 8.9375 -1.1875 C 8.664062 -0.914062 8.3125 -0.671875 7.875 -0.453125 C 7.445312 -0.234375 6.960938 -0.0664062 6.421875 0.046875 C 5.890625 0.171875 5.335938 0.234375 4.765625 0.234375 Z M 1.34375 -3.359375 L 7.5625 -3.359375 C 7.519531 -3.753906 7.351562 -4.09375 7.0625 -4.375 C 6.769531 -4.65625 6.390625 -4.867188 5.921875 -5.015625 C 5.460938 -5.171875 4.957031 -5.25 4.40625 -5.25 C 3.851562 -5.25 3.351562 -5.164062 2.90625 -5 C 2.457031 -4.84375 2.09375 -4.617188 1.8125 -4.328125 C 1.539062 -4.046875 1.382812 -3.722656 1.34375 -3.359375 Z M 1.34375 -3.359375 "/></g></g></g><g fill="#f5f5f5" fill-opacity="1"><g transform="translate(84.262161, 45.130405)"><g><path d="M 3.75 -6.125 C 4.394531 -6.125 4.921875 -5.941406 5.328125 -5.578125 C 5.742188 -5.222656 5.988281 -4.722656 6.0625 -4.078125 L 5.28125 -3.8125 C 5.238281 -4.300781 5.066406 -4.671875 4.765625 -4.921875 C 4.460938 -5.171875 4.085938 -5.296875 3.640625 -5.296875 C 2.921875 -5.296875 2.359375 -5.039062 1.953125 -4.53125 C 1.546875 -4.019531 1.34375 -3.328125 1.34375 -2.453125 L 1.34375 0 L 0.46875 0 L 0.46875 -5.875 L 1.265625 -5.875 L 1.359375 -4.640625 L 1.375 -4.640625 C 1.601562 -5.097656 1.921875 -5.457031 2.328125 -5.71875 C 2.734375 -5.988281 3.207031 -6.125 3.75 -6.125 Z M 3.75 -6.125 "/></g></g></g><g fill="#f5f5f5" fill-opacity="1"><g transform="translate(90.556285, 45.130405)"><g><path d="M 4.546875 0.234375 C 3.773438 0.234375 3.175781 0.0351562 2.75 -0.359375 C 2.332031 -0.753906 2.125 -1.316406 2.125 -2.046875 L 2.125 -5.140625 L 0 -5.140625 L 0 -5.875 L 2.125 -5.875 L 2.125 -7.734375 L 3.03125 -7.953125 L 3.03125 -5.875 L 6.875 -5.875 L 6.875 -5.140625 L 3.03125 -5.140625 L 3.03125 -2.09375 C 3.019531 -1.59375 3.144531 -1.207031 3.40625 -0.9375 C 3.675781 -0.664062 4.0625 -0.53125 4.5625 -0.53125 C 4.988281 -0.53125 5.367188 -0.648438 5.703125 -0.890625 C 6.035156 -1.128906 6.265625 -1.445312 6.390625 -1.84375 L 7.15625 -1.46875 C 6.96875 -0.957031 6.632812 -0.546875 6.15625 -0.234375 C 5.6875 0.078125 5.148438 0.234375 4.546875 0.234375 Z M 4.546875 0.234375 "/></g></g></g><g fill="#f5f5f5" fill-opacity="1"><g transform="translate(97.909128, 45.130405)"><g><path d="M 4.640625 0.234375 C 3.785156 0.234375 3.035156 0.101562 2.390625 -0.15625 C 1.742188 -0.425781 1.238281 -0.796875 0.875 -1.265625 C 0.519531 -1.742188 0.34375 -2.300781 0.34375 -2.9375 C 0.34375 -3.582031 0.519531 -4.140625 0.875 -4.609375 C 1.238281 -5.078125 1.742188 -5.441406 2.390625 -5.703125 C 3.035156 -5.972656 3.785156 -6.109375 4.640625 -6.109375 C 5.515625 -6.109375 6.269531 -5.972656 6.90625 -5.703125 C 7.550781 -5.441406 8.050781 -5.078125 8.40625 -4.609375 C 8.769531 -4.140625 8.953125 -3.582031 8.953125 -2.9375 C 8.953125 -2.300781 8.769531 -1.742188 8.40625 -1.265625 C 8.050781 -0.796875 7.550781 -0.425781 6.90625 -0.15625 C 6.269531 0.101562 5.515625 0.234375 4.640625 0.234375 Z M 4.640625 -0.578125 C 5.335938 -0.578125 5.9375 -0.671875 6.4375 -0.859375 C 6.945312 -1.054688 7.34375 -1.332031 7.625 -1.6875 C 7.914062 -2.039062 8.0625 -2.457031 8.0625 -2.9375 C 8.0625 -3.414062 7.914062 -3.832031 7.625 -4.1875 C 7.34375 -4.539062 6.945312 -4.8125 6.4375 -5 C 5.9375 -5.195312 5.335938 -5.296875 4.640625 -5.296875 C 3.960938 -5.296875 3.363281 -5.195312 2.84375 -5 C 2.332031 -4.8125 1.9375 -4.539062 1.65625 -4.1875 C 1.375 -3.832031 1.234375 -3.414062 1.234375 -2.9375 C 1.234375 -2.457031 1.375 -2.039062 1.65625 -1.6875 C 1.9375 -1.332031 2.332031 -1.054688 2.84375 -0.859375 C 3.363281 -0.671875 3.960938 -0.578125 4.640625 -0.578125 Z M 4.640625 -0.578125 "/></g></g></g><g fill="#f5f5f5" fill-opacity="1"><g transform="translate(107.204886, 45.130405)"><g><path d="M 4.765625 -6.109375 C 5.816406 -6.109375 6.640625 -5.847656 7.234375 -5.328125 C 7.828125 -4.804688 8.125 -4.085938 8.125 -3.171875 L 8.125 0 L 7.234375 0 L 7.234375 -3.078125 C 7.234375 -3.773438 7.003906 -4.316406 6.546875 -4.703125 C 6.085938 -5.097656 5.441406 -5.296875 4.609375 -5.296875 C 3.585938 -5.296875 2.785156 -5.046875 2.203125 -4.546875 C 1.628906 -4.054688 1.34375 -3.367188 1.34375 -2.484375 L 1.34375 0 L 0.46875 0 L 0.46875 -5.875 L 1.265625 -5.875 L 1.359375 -4.453125 L 1.375 -4.453125 C 1.644531 -4.972656 2.078125 -5.378906 2.671875 -5.671875 C 3.273438 -5.960938 3.972656 -6.109375 4.765625 -6.109375 Z M 4.765625 -6.109375 "/></g></g></g><g fill="#f5f5f5" fill-opacity="1"><g transform="translate(115.732783, 45.130405)"><g><path d="M 0.578125 0 L 0.578125 -8.203125 L 2.0625 -8.203125 L 6.140625 -0.890625 L 6.15625 -0.890625 L 10.21875 -8.203125 L 11.703125 -8.203125 L 11.703125 0 L 10.75 0 L 10.75 -7.1875 L 10.71875 -7.1875 L 6.734375 0 L 5.546875 0 L 1.578125 -7.171875 L 1.546875 -7.171875 L 1.546875 0 Z M 0.578125 0 "/></g></g></g><g fill="#f5f5f5" fill-opacity="1"><g transform="translate(128.018532, 45.130405)"><g><path d="M 4.765625 0.234375 C 3.921875 0.234375 3.164062 0.09375 2.5 -0.1875 C 1.832031 -0.46875 1.304688 -0.851562 0.921875 -1.34375 C 0.535156 -1.832031 0.34375 -2.382812 0.34375 -3 C 0.34375 -3.601562 0.519531 -4.140625 0.875 -4.609375 C 1.226562 -5.078125 1.710938 -5.441406 2.328125 -5.703125 C 2.953125 -5.972656 3.660156 -6.109375 4.453125 -6.109375 C 5.242188 -6.109375 5.941406 -5.972656 6.546875 -5.703125 C 7.160156 -5.441406 7.640625 -5.078125 7.984375 -4.609375 C 8.335938 -4.140625 8.515625 -3.597656 8.515625 -2.984375 C 8.515625 -2.929688 8.507812 -2.863281 8.5 -2.78125 C 8.5 -2.695312 8.492188 -2.625 8.484375 -2.5625 L 1.375 -2.5625 C 1.425781 -2.175781 1.613281 -1.835938 1.9375 -1.546875 C 2.257812 -1.265625 2.675781 -1.035156 3.1875 -0.859375 C 3.695312 -0.691406 4.253906 -0.609375 4.859375 -0.609375 C 5.347656 -0.609375 5.820312 -0.660156 6.28125 -0.765625 C 6.75 -0.878906 7.171875 -1.023438 7.546875 -1.203125 C 7.921875 -1.390625 8.210938 -1.597656 8.421875 -1.828125 L 8.9375 -1.1875 C 8.664062 -0.914062 8.3125 -0.671875 7.875 -0.453125 C 7.445312 -0.234375 6.960938 -0.0664062 6.421875 0.046875 C 5.890625 0.171875 5.335938 0.234375 4.765625 0.234375 Z M 1.34375 -3.359375 L 7.5625 -3.359375 C 7.519531 -3.753906 7.351562 -4.09375 7.0625 -4.375 C 6.769531 -4.65625 6.390625 -4.867188 5.921875 -5.015625 C 5.460938 -5.171875 4.957031 -5.25 4.40625 -5.25 C 3.851562 -5.25 3.351562 -5.164062 2.90625 -5 C 2.457031 -4.84375 2.09375 -4.617188 1.8125 -4.328125 C 1.539062 -4.046875 1.382812 -3.722656 1.34375 -3.359375 Z M 1.34375 -3.359375 "/></g></g></g><g fill="#f5f5f5" fill-opacity="1"><g transform="translate(137.279377, 45.130405)"><g><path d="M 0.46875 0 L 0.46875 -8.5625 L 1.34375 -8.5625 L 1.34375 0 Z M 0.46875 0 "/></g></g></g><g fill="#f5f5f5" fill-opacity="1"><g transform="translate(139.094314, 45.130405)"><g><path d="M 4.640625 0.234375 C 3.785156 0.234375 3.035156 0.101562 2.390625 -0.15625 C 1.742188 -0.425781 1.238281 -0.796875 0.875 -1.265625 C 0.519531 -1.742188 0.34375 -2.300781 0.34375 -2.9375 C 0.34375 -3.582031 0.519531 -4.140625 0.875 -4.609375 C 1.238281 -5.078125 1.742188 -5.441406 2.390625 -5.703125 C 3.035156 -5.972656 3.785156 -6.109375 4.640625 -6.109375 C 5.515625 -6.109375 6.269531 -5.972656 6.90625 -5.703125 C 7.550781 -5.441406 8.050781 -5.078125 8.40625 -4.609375 C 8.769531 -4.140625 8.953125 -3.582031 8.953125 -2.9375 C 8.953125 -2.300781 8.769531 -1.742188 8.40625 -1.265625 C 8.050781 -0.796875 7.550781 -0.425781 6.90625 -0.15625 C 6.269531 0.101562 5.515625 0.234375 4.640625 0.234375 Z M 4.640625 -0.578125 C 5.335938 -0.578125 5.9375 -0.671875 6.4375 -0.859375 C 6.945312 -1.054688 7.34375 -1.332031 7.625 -1.6875 C 7.914062 -2.039062 8.0625 -2.457031 8.0625 -2.9375 C 8.0625 -3.414062 7.914062 -3.832031 7.625 -4.1875 C 7.34375 -4.539062 6.945312 -4.8125 6.4375 -5 C 5.9375 -5.195312 5.335938 -5.296875 4.640625 -5.296875 C 3.960938 -5.296875 3.363281 -5.195312 2.84375 -5 C 2.332031 -4.8125 1.9375 -4.539062 1.65625 -4.1875 C 1.375 -3.832031 1.234375 -3.414062 1.234375 -2.9375 C 1.234375 -2.457031 1.375 -2.039062 1.65625 -1.6875 C 1.9375 -1.332031 2.332031 -1.054688 2.84375 -0.859375 C 3.363281 -0.671875 3.960938 -0.578125 4.640625 -0.578125 Z M 4.640625 -0.578125 "/></g></g></g><g fill="#03989e" fill-opacity="1"><g transform="translate(2.205456, 47.045942)"><g><path d="M 7.5 -2.328125 C 7.5 -2.222656 7.4375 -2.171875 7.3125 -2.171875 L 6.40625 -2.171875 C 6.25 -2.171875 6.085938 -2.238281 5.921875 -2.375 L 2.171875 -5.5625 C 1.992188 -5.71875 1.90625 -5.890625 1.90625 -6.078125 C 1.90625 -6.273438 1.992188 -6.453125 2.171875 -6.609375 L 5.921875 -9.78125 C 6.085938 -9.914062 6.25 -9.984375 6.40625 -9.984375 L 7.3125 -9.984375 C 7.4375 -9.984375 7.5 -9.929688 7.5 -9.828125 C 7.5 -9.753906 7.445312 -9.671875 7.34375 -9.578125 L 3.265625 -6.078125 L 7.34375 -2.59375 C 7.445312 -2.5 7.5 -2.410156 7.5 -2.328125 Z M 7.5 -2.328125 "/></g></g></g><g fill="#03989e" fill-opacity="1"><g transform="translate(11.61348, 47.045942)"><g><path d="M 7.71875 -0.1875 C 7.71875 -0.0625 7.664062 0.0078125 7.5625 0.03125 C 7.363281 0.0507812 7.082031 0.0664062 6.71875 0.078125 C 6.351562 0.0859375 5.972656 0.09375 5.578125 0.09375 C 5.191406 0.101562 4.84375 0.109375 4.53125 0.109375 C 3.4375 0.109375 2.609375 -0.113281 2.046875 -0.5625 C 1.492188 -1.007812 1.21875 -1.75 1.21875 -2.78125 L 1.21875 -8.78125 C 1.21875 -9.8125 1.492188 -10.550781 2.046875 -11 C 2.609375 -11.445312 3.4375 -11.671875 4.53125 -11.671875 C 4.84375 -11.671875 5.191406 -11.664062 5.578125 -11.65625 C 5.960938 -11.65625 6.332031 -11.644531 6.6875 -11.625 C 7.050781 -11.613281 7.34375 -11.597656 7.5625 -11.578125 C 7.664062 -11.554688 7.71875 -11.484375 7.71875 -11.359375 L 7.71875 -10.578125 C 7.71875 -10.453125 7.660156 -10.390625 7.546875 -10.390625 L 4.546875 -10.390625 C 3.992188 -10.390625 3.578125 -10.335938 3.296875 -10.234375 C 3.023438 -10.128906 2.84375 -9.957031 2.75 -9.71875 C 2.664062 -9.488281 2.625 -9.175781 2.625 -8.78125 L 2.625 -6.609375 L 7.40625 -6.609375 C 7.488281 -6.609375 7.5625 -6.578125 7.625 -6.515625 C 7.6875 -6.453125 7.71875 -6.378906 7.71875 -6.296875 L 7.71875 -5.71875 C 7.71875 -5.632812 7.6875 -5.5625 7.625 -5.5 C 7.5625 -5.4375 7.488281 -5.40625 7.40625 -5.40625 L 2.625 -5.40625 L 2.625 -2.78125 C 2.625 -2.382812 2.664062 -2.066406 2.75 -1.828125 C 2.84375 -1.597656 3.023438 -1.429688 3.296875 -1.328125 C 3.578125 -1.222656 3.992188 -1.171875 4.546875 -1.171875 L 7.546875 -1.171875 C 7.660156 -1.171875 7.71875 -1.109375 7.71875 -0.984375 Z M 7.71875 -0.1875 "/></g></g></g><g fill="#03989e" fill-opacity="1"><g transform="translate(20.181777, 47.045942)"><g><path d="M 12.6875 -4.140625 C 12.6875 -2.785156 12.429688 -1.738281 11.921875 -1 C 11.410156 -0.257812 10.566406 0.109375 9.390625 0.109375 C 8.984375 0.109375 8.582031 0.0820312 8.1875 0.03125 C 7.800781 -0.0195312 7.382812 -0.125 6.9375 -0.28125 C 6.488281 -0.125 6.070312 -0.0195312 5.6875 0.03125 C 5.3125 0.0820312 4.921875 0.109375 4.515625 0.109375 C 3.328125 0.109375 2.476562 -0.257812 1.96875 -1 C 1.46875 -1.738281 1.21875 -2.785156 1.21875 -4.140625 L 1.21875 -11.265625 C 1.21875 -11.347656 1.242188 -11.414062 1.296875 -11.46875 C 1.359375 -11.53125 1.429688 -11.5625 1.515625 -11.5625 L 2.328125 -11.5625 C 2.410156 -11.5625 2.476562 -11.53125 2.53125 -11.46875 C 2.59375 -11.414062 2.625 -11.347656 2.625 -11.265625 L 2.625 -4.140625 C 2.625 -3.441406 2.679688 -2.867188 2.796875 -2.421875 C 2.921875 -1.972656 3.140625 -1.640625 3.453125 -1.421875 C 3.765625 -1.203125 4.21875 -1.09375 4.8125 -1.09375 C 4.90625 -1.09375 5.039062 -1.097656 5.21875 -1.109375 C 5.40625 -1.117188 5.59375 -1.132812 5.78125 -1.15625 C 5.96875 -1.175781 6.117188 -1.203125 6.234375 -1.234375 L 6.234375 -11.265625 C 6.234375 -11.347656 6.257812 -11.414062 6.3125 -11.46875 C 6.375 -11.53125 6.445312 -11.5625 6.53125 -11.5625 L 7.375 -11.5625 C 7.5625 -11.5625 7.65625 -11.46875 7.65625 -11.28125 L 7.65625 -1.234375 C 7.769531 -1.203125 7.921875 -1.175781 8.109375 -1.15625 C 8.304688 -1.132812 8.5 -1.117188 8.6875 -1.109375 C 8.875 -1.097656 9.007812 -1.09375 9.09375 -1.09375 C 9.675781 -1.09375 10.125 -1.203125 10.4375 -1.421875 C 10.75 -1.640625 10.960938 -1.972656 11.078125 -2.421875 C 11.203125 -2.867188 11.265625 -3.441406 11.265625 -4.140625 L 11.265625 -11.265625 C 11.265625 -11.347656 11.289062 -11.414062 11.34375 -11.46875 C 11.40625 -11.53125 11.476562 -11.5625 11.5625 -11.5625 L 12.390625 -11.5625 C 12.472656 -11.5625 12.539062 -11.53125 12.59375 -11.46875 C 12.65625 -11.414062 12.6875 -11.347656 12.6875 -11.265625 Z M 12.6875 -4.140625 "/></g></g></g><g fill="#03989e" fill-opacity="1"><g transform="translate(34.068331, 47.045942)"><g><path d="M 5.1875 -11.34375 C 5.1875 -11.300781 5.179688 -11.269531 5.171875 -11.25 L 1.65625 -0.3125 C 1.632812 -0.238281 1.601562 -0.164062 1.5625 -0.09375 C 1.519531 -0.03125 1.457031 0 1.375 0 L 0.578125 0 C 0.503906 0 0.445312 -0.0195312 0.40625 -0.0625 C 0.375 -0.113281 0.359375 -0.164062 0.359375 -0.21875 C 0.359375 -0.257812 0.363281 -0.289062 0.375 -0.3125 L 3.90625 -11.25 C 3.925781 -11.332031 3.957031 -11.40625 4 -11.46875 C 4.039062 -11.53125 4.097656 -11.5625 4.171875 -11.5625 L 4.96875 -11.5625 C 5.039062 -11.5625 5.09375 -11.535156 5.125 -11.484375 C 5.164062 -11.441406 5.1875 -11.394531 5.1875 -11.34375 Z M 5.1875 -11.34375 "/></g></g></g><g fill="#03989e" fill-opacity="1"><g transform="translate(39.588742, 47.045942)"><g><path d="M 7.515625 -6.078125 C 7.515625 -5.890625 7.421875 -5.71875 7.234375 -5.5625 L 3.484375 -2.375 C 3.316406 -2.238281 3.15625 -2.171875 3 -2.171875 L 2.09375 -2.171875 C 1.976562 -2.171875 1.921875 -2.222656 1.921875 -2.328125 C 1.921875 -2.410156 1.96875 -2.5 2.0625 -2.59375 L 6.140625 -6.078125 L 2.0625 -9.578125 C 1.96875 -9.671875 1.921875 -9.753906 1.921875 -9.828125 C 1.921875 -9.929688 1.976562 -9.984375 2.09375 -9.984375 L 3 -9.984375 C 3.15625 -9.984375 3.316406 -9.914062 3.484375 -9.78125 L 7.234375 -6.609375 C 7.421875 -6.453125 7.515625 -6.273438 7.515625 -6.078125 Z M 7.515625 -6.078125 "/></g></g></g></svg>